G75*
%MOIN*%
%OFA0B0*%
%FSLAX25Y25*%
%IPPOS*%
%LPD*%
%AMOC8*
5,1,8,0,0,1.08239X$1,22.5*
%
%ADD10C,0.00100*%
%ADD11C,0.00400*%
%ADD12C,0.00200*%
%ADD13C,0.01000*%
%ADD14C,0.00800*%
%ADD15C,0.00600*%
%ADD16C,0.00500*%
%ADD17R,0.07000X0.06500*%
D10*
X0001715Y0044050D02*
X0001728Y0045105D01*
X0001767Y0046160D01*
X0001832Y0047213D01*
X0001922Y0048265D01*
X0002038Y0049314D01*
X0002180Y0050359D01*
X0002348Y0051401D01*
X0002541Y0052439D01*
X0002760Y0053471D01*
X0003004Y0054498D01*
X0003273Y0055519D01*
X0003567Y0056532D01*
X0003885Y0057538D01*
X0004229Y0058536D01*
X0004596Y0059525D01*
X0004988Y0060505D01*
X0005404Y0061475D01*
X0005843Y0062435D01*
X0006306Y0063383D01*
X0006792Y0064320D01*
X0007301Y0065245D01*
X0007833Y0066156D01*
X0008386Y0067055D01*
X0008962Y0067940D01*
X0009559Y0068810D01*
X0010177Y0069665D01*
X0010816Y0070505D01*
X0011476Y0071329D01*
X0012155Y0072136D01*
X0012854Y0072927D01*
X0013572Y0073700D01*
X0014309Y0074456D01*
X0015065Y0075193D01*
X0015838Y0075911D01*
X0016629Y0076610D01*
X0017436Y0077289D01*
X0018260Y0077949D01*
X0019100Y0078588D01*
X0019955Y0079206D01*
X0020825Y0079803D01*
X0021710Y0080379D01*
X0022609Y0080932D01*
X0023520Y0081464D01*
X0024445Y0081973D01*
X0025382Y0082459D01*
X0026330Y0082922D01*
X0027290Y0083361D01*
X0028260Y0083777D01*
X0029240Y0084169D01*
X0030229Y0084536D01*
X0031227Y0084880D01*
X0032233Y0085198D01*
X0033246Y0085492D01*
X0034267Y0085761D01*
X0035294Y0086005D01*
X0036326Y0086224D01*
X0037364Y0086417D01*
X0038406Y0086585D01*
X0039451Y0086727D01*
X0040500Y0086843D01*
X0041552Y0086933D01*
X0042605Y0086998D01*
X0043660Y0087037D01*
X0044715Y0087050D01*
X0045770Y0087037D01*
X0046825Y0086998D01*
X0047878Y0086933D01*
X0048930Y0086843D01*
X0049979Y0086727D01*
X0051024Y0086585D01*
X0052066Y0086417D01*
X0053104Y0086224D01*
X0054136Y0086005D01*
X0055163Y0085761D01*
X0056184Y0085492D01*
X0057197Y0085198D01*
X0058203Y0084880D01*
X0059201Y0084536D01*
X0060190Y0084169D01*
X0061170Y0083777D01*
X0062140Y0083361D01*
X0063100Y0082922D01*
X0064048Y0082459D01*
X0064985Y0081973D01*
X0065910Y0081464D01*
X0066821Y0080932D01*
X0067720Y0080379D01*
X0068605Y0079803D01*
X0069475Y0079206D01*
X0070330Y0078588D01*
X0071170Y0077949D01*
X0071994Y0077289D01*
X0072801Y0076610D01*
X0073592Y0075911D01*
X0074365Y0075193D01*
X0075121Y0074456D01*
X0075858Y0073700D01*
X0076576Y0072927D01*
X0077275Y0072136D01*
X0077954Y0071329D01*
X0078614Y0070505D01*
X0079253Y0069665D01*
X0079871Y0068810D01*
X0080468Y0067940D01*
X0081044Y0067055D01*
X0081597Y0066156D01*
X0082129Y0065245D01*
X0082638Y0064320D01*
X0083124Y0063383D01*
X0083587Y0062435D01*
X0084026Y0061475D01*
X0084442Y0060505D01*
X0084834Y0059525D01*
X0085201Y0058536D01*
X0085545Y0057538D01*
X0085863Y0056532D01*
X0086157Y0055519D01*
X0086426Y0054498D01*
X0086670Y0053471D01*
X0086889Y0052439D01*
X0087082Y0051401D01*
X0087250Y0050359D01*
X0087392Y0049314D01*
X0087508Y0048265D01*
X0087598Y0047213D01*
X0087663Y0046160D01*
X0087702Y0045105D01*
X0087715Y0044050D01*
X0087702Y0042995D01*
X0087663Y0041940D01*
X0087598Y0040887D01*
X0087508Y0039835D01*
X0087392Y0038786D01*
X0087250Y0037741D01*
X0087082Y0036699D01*
X0086889Y0035661D01*
X0086670Y0034629D01*
X0086426Y0033602D01*
X0086157Y0032581D01*
X0085863Y0031568D01*
X0085545Y0030562D01*
X0085201Y0029564D01*
X0084834Y0028575D01*
X0084442Y0027595D01*
X0084026Y0026625D01*
X0083587Y0025665D01*
X0083124Y0024717D01*
X0082638Y0023780D01*
X0082129Y0022855D01*
X0081597Y0021944D01*
X0081044Y0021045D01*
X0080468Y0020160D01*
X0079871Y0019290D01*
X0079253Y0018435D01*
X0078614Y0017595D01*
X0077954Y0016771D01*
X0077275Y0015964D01*
X0076576Y0015173D01*
X0075858Y0014400D01*
X0075121Y0013644D01*
X0074365Y0012907D01*
X0073592Y0012189D01*
X0072801Y0011490D01*
X0071994Y0010811D01*
X0071170Y0010151D01*
X0070330Y0009512D01*
X0069475Y0008894D01*
X0068605Y0008297D01*
X0067720Y0007721D01*
X0066821Y0007168D01*
X0065910Y0006636D01*
X0064985Y0006127D01*
X0064048Y0005641D01*
X0063100Y0005178D01*
X0062140Y0004739D01*
X0061170Y0004323D01*
X0060190Y0003931D01*
X0059201Y0003564D01*
X0058203Y0003220D01*
X0057197Y0002902D01*
X0056184Y0002608D01*
X0055163Y0002339D01*
X0054136Y0002095D01*
X0053104Y0001876D01*
X0052066Y0001683D01*
X0051024Y0001515D01*
X0049979Y0001373D01*
X0048930Y0001257D01*
X0047878Y0001167D01*
X0046825Y0001102D01*
X0045770Y0001063D01*
X0044715Y0001050D01*
X0043660Y0001063D01*
X0042605Y0001102D01*
X0041552Y0001167D01*
X0040500Y0001257D01*
X0039451Y0001373D01*
X0038406Y0001515D01*
X0037364Y0001683D01*
X0036326Y0001876D01*
X0035294Y0002095D01*
X0034267Y0002339D01*
X0033246Y0002608D01*
X0032233Y0002902D01*
X0031227Y0003220D01*
X0030229Y0003564D01*
X0029240Y0003931D01*
X0028260Y0004323D01*
X0027290Y0004739D01*
X0026330Y0005178D01*
X0025382Y0005641D01*
X0024445Y0006127D01*
X0023520Y0006636D01*
X0022609Y0007168D01*
X0021710Y0007721D01*
X0020825Y0008297D01*
X0019955Y0008894D01*
X0019100Y0009512D01*
X0018260Y0010151D01*
X0017436Y0010811D01*
X0016629Y0011490D01*
X0015838Y0012189D01*
X0015065Y0012907D01*
X0014309Y0013644D01*
X0013572Y0014400D01*
X0012854Y0015173D01*
X0012155Y0015964D01*
X0011476Y0016771D01*
X0010816Y0017595D01*
X0010177Y0018435D01*
X0009559Y0019290D01*
X0008962Y0020160D01*
X0008386Y0021045D01*
X0007833Y0021944D01*
X0007301Y0022855D01*
X0006792Y0023780D01*
X0006306Y0024717D01*
X0005843Y0025665D01*
X0005404Y0026625D01*
X0004988Y0027595D01*
X0004596Y0028575D01*
X0004229Y0029564D01*
X0003885Y0030562D01*
X0003567Y0031568D01*
X0003273Y0032581D01*
X0003004Y0033602D01*
X0002760Y0034629D01*
X0002541Y0035661D01*
X0002348Y0036699D01*
X0002180Y0037741D01*
X0002038Y0038786D01*
X0001922Y0039835D01*
X0001832Y0040887D01*
X0001767Y0041940D01*
X0001728Y0042995D01*
X0001715Y0044050D01*
D11*
X0004915Y0042604D02*
X0004915Y0038000D01*
X0007984Y0038000D01*
X0009518Y0038000D02*
X0009518Y0041069D01*
X0011053Y0042604D01*
X0012588Y0041069D01*
X0012588Y0038000D01*
X0014122Y0038000D02*
X0014122Y0042604D01*
X0015657Y0041069D01*
X0017192Y0042604D01*
X0017192Y0038000D01*
X0018726Y0038000D02*
X0018726Y0042604D01*
X0021028Y0042604D01*
X0021796Y0041837D01*
X0021796Y0040302D01*
X0021028Y0039535D01*
X0018726Y0039535D01*
X0018726Y0045500D02*
X0018726Y0048569D01*
X0020261Y0050104D01*
X0021796Y0048569D01*
X0021796Y0045500D01*
X0021796Y0047802D02*
X0018726Y0047802D01*
X0017192Y0050104D02*
X0017192Y0045500D01*
X0014122Y0045500D02*
X0014122Y0050104D01*
X0015657Y0048569D01*
X0017192Y0050104D01*
X0012588Y0049337D02*
X0012588Y0047802D01*
X0011820Y0047035D01*
X0009518Y0047035D01*
X0009518Y0045500D02*
X0009518Y0050104D01*
X0011820Y0050104D01*
X0012588Y0049337D01*
X0011053Y0047035D02*
X0012588Y0045500D01*
X0007984Y0045500D02*
X0007984Y0048569D01*
X0006449Y0050104D01*
X0004915Y0048569D01*
X0004915Y0045500D01*
X0004915Y0047802D02*
X0007984Y0047802D01*
X0009518Y0040302D02*
X0012588Y0040302D01*
X0038612Y0038735D02*
X0050817Y0038735D01*
X0047963Y0038735D01*
X0048652Y0039424D01*
X0050817Y0039424D01*
X0050817Y0038735D01*
X0050817Y0038936D02*
X0048163Y0038936D01*
X0048562Y0039334D02*
X0050817Y0039334D01*
X0047274Y0047790D02*
X0047163Y0047863D01*
X0047050Y0047932D01*
X0046936Y0047999D01*
X0046819Y0048062D01*
X0046701Y0048121D01*
X0046580Y0048177D01*
X0046459Y0048230D01*
X0046336Y0048279D01*
X0046211Y0048324D01*
X0046085Y0048366D01*
X0045958Y0048404D01*
X0045830Y0048438D01*
X0045701Y0048469D01*
X0045571Y0048496D01*
X0045441Y0048519D01*
X0045310Y0048538D01*
X0045178Y0048553D01*
X0045046Y0048565D01*
X0044914Y0048573D01*
X0044781Y0048577D01*
X0044649Y0048577D01*
X0044516Y0048573D01*
X0044384Y0048565D01*
X0044252Y0048553D01*
X0044120Y0048538D01*
X0043989Y0048519D01*
X0043859Y0048496D01*
X0043729Y0048469D01*
X0043600Y0048438D01*
X0043472Y0048404D01*
X0043345Y0048366D01*
X0043219Y0048324D01*
X0043094Y0048279D01*
X0042971Y0048230D01*
X0042850Y0048177D01*
X0042729Y0048121D01*
X0042611Y0048062D01*
X0042494Y0047999D01*
X0042380Y0047932D01*
X0042267Y0047863D01*
X0042156Y0047790D01*
X0038612Y0049365D02*
X0050817Y0049365D01*
X0047274Y0040310D02*
X0047163Y0040237D01*
X0047050Y0040168D01*
X0046936Y0040101D01*
X0046819Y0040038D01*
X0046701Y0039979D01*
X0046580Y0039923D01*
X0046459Y0039870D01*
X0046336Y0039821D01*
X0046211Y0039776D01*
X0046085Y0039734D01*
X0045958Y0039696D01*
X0045830Y0039662D01*
X0045701Y0039631D01*
X0045571Y0039604D01*
X0045441Y0039581D01*
X0045310Y0039562D01*
X0045178Y0039547D01*
X0045046Y0039535D01*
X0044914Y0039527D01*
X0044781Y0039523D01*
X0044649Y0039523D01*
X0044516Y0039527D01*
X0044384Y0039535D01*
X0044252Y0039547D01*
X0044120Y0039562D01*
X0043989Y0039581D01*
X0043859Y0039604D01*
X0043729Y0039631D01*
X0043600Y0039662D01*
X0043472Y0039696D01*
X0043345Y0039734D01*
X0043219Y0039776D01*
X0043094Y0039821D01*
X0042971Y0039870D01*
X0042850Y0039923D01*
X0042729Y0039979D01*
X0042611Y0040038D01*
X0042494Y0040101D01*
X0042380Y0040168D01*
X0042267Y0040237D01*
X0042156Y0040310D01*
X0057860Y0046050D02*
X0059261Y0046050D01*
X0059729Y0046517D01*
X0059729Y0046984D01*
X0059261Y0047451D01*
X0057860Y0047451D01*
X0057860Y0046050D02*
X0057860Y0048852D01*
X0059261Y0048852D01*
X0059729Y0048385D01*
X0059729Y0047918D01*
X0059261Y0047451D01*
X0060807Y0046517D02*
X0061274Y0046050D01*
X0062208Y0046050D01*
X0062675Y0046517D01*
X0062675Y0048385D01*
X0062208Y0048852D01*
X0061274Y0048852D01*
X0060807Y0048385D01*
X0060807Y0046517D01*
X0063753Y0046050D02*
X0063753Y0048852D01*
X0065154Y0048852D01*
X0065622Y0048385D01*
X0065622Y0047918D01*
X0065154Y0047451D01*
X0063753Y0047451D01*
X0063753Y0046050D02*
X0065154Y0046050D01*
X0065622Y0046517D01*
X0065622Y0046984D01*
X0065154Y0047451D01*
X0066700Y0046984D02*
X0068101Y0046984D01*
X0068568Y0047451D01*
X0068568Y0048385D01*
X0068101Y0048852D01*
X0066700Y0048852D01*
X0066700Y0046050D01*
X0067634Y0046984D02*
X0068568Y0046050D01*
X0069646Y0046050D02*
X0070580Y0046050D01*
X0070113Y0046050D02*
X0070113Y0048852D01*
X0069646Y0048852D02*
X0070580Y0048852D01*
X0071611Y0048385D02*
X0071611Y0046517D01*
X0072078Y0046050D01*
X0073012Y0046050D01*
X0073479Y0046517D01*
X0074557Y0046050D02*
X0075491Y0046050D01*
X0075024Y0046050D02*
X0075024Y0048852D01*
X0074557Y0048852D02*
X0075491Y0048852D01*
X0076522Y0048852D02*
X0076522Y0046517D01*
X0076989Y0046050D01*
X0077923Y0046050D01*
X0078390Y0046517D01*
X0078390Y0048852D01*
X0079468Y0048385D02*
X0079468Y0047918D01*
X0079935Y0047451D01*
X0080869Y0047451D01*
X0081336Y0046984D01*
X0081336Y0046517D01*
X0080869Y0046050D01*
X0079935Y0046050D01*
X0079468Y0046517D01*
X0079468Y0048385D02*
X0079935Y0048852D01*
X0080869Y0048852D01*
X0081336Y0048385D01*
X0073479Y0048385D02*
X0073012Y0048852D01*
X0072078Y0048852D01*
X0071611Y0048385D01*
D12*
X0071786Y0044452D02*
X0072153Y0044085D01*
X0072153Y0042617D01*
X0071786Y0042250D01*
X0071052Y0042250D01*
X0070685Y0042617D01*
X0070685Y0044085D01*
X0071052Y0044452D01*
X0071786Y0044452D01*
X0072895Y0044085D02*
X0072895Y0042617D01*
X0073262Y0042250D01*
X0073996Y0042250D01*
X0074363Y0042617D01*
X0074363Y0044085D01*
X0073996Y0044452D01*
X0073262Y0044452D01*
X0072895Y0044085D01*
X0075105Y0044452D02*
X0075839Y0043718D01*
X0076573Y0044452D01*
X0076573Y0042250D01*
X0077315Y0042617D02*
X0077682Y0042250D01*
X0078415Y0042250D01*
X0078782Y0042617D01*
X0078782Y0042984D01*
X0078415Y0043351D01*
X0077682Y0043351D01*
X0077315Y0043718D01*
X0077315Y0044085D01*
X0077682Y0044452D01*
X0078415Y0044452D01*
X0078782Y0044085D01*
X0079524Y0044452D02*
X0080625Y0044452D01*
X0080992Y0044085D01*
X0080992Y0042617D01*
X0080625Y0042250D01*
X0079524Y0042250D01*
X0079524Y0044452D01*
X0081734Y0043718D02*
X0081734Y0042250D01*
X0081729Y0040852D02*
X0080261Y0040852D01*
X0080995Y0040852D02*
X0080995Y0038650D01*
X0079519Y0038650D02*
X0079519Y0040852D01*
X0079519Y0039751D02*
X0078051Y0039751D01*
X0077309Y0039751D02*
X0076575Y0039751D01*
X0077309Y0039751D02*
X0077309Y0039017D01*
X0076942Y0038650D01*
X0076208Y0038650D01*
X0075841Y0039017D01*
X0075841Y0040485D01*
X0076208Y0040852D01*
X0076942Y0040852D01*
X0077309Y0040485D01*
X0078051Y0040852D02*
X0078051Y0038650D01*
X0075102Y0038650D02*
X0074368Y0038650D01*
X0074735Y0038650D02*
X0074735Y0040852D01*
X0074368Y0040852D02*
X0075102Y0040852D01*
X0075105Y0042250D02*
X0075105Y0044452D01*
X0072158Y0040852D02*
X0072158Y0038650D01*
X0073626Y0038650D01*
X0069943Y0042617D02*
X0069576Y0042250D01*
X0068475Y0042250D01*
X0068475Y0044452D01*
X0069576Y0044452D01*
X0069943Y0044085D01*
X0069943Y0042617D01*
X0081734Y0043351D02*
X0083202Y0043351D01*
X0083202Y0043718D02*
X0083202Y0042250D01*
X0083202Y0043718D02*
X0082468Y0044452D01*
X0081734Y0043718D01*
X0083944Y0044085D02*
X0084678Y0043351D01*
X0084678Y0042250D01*
X0084678Y0043351D02*
X0085412Y0044085D01*
X0085412Y0044452D01*
X0083944Y0044452D02*
X0083944Y0044085D01*
D13*
X0082283Y0050801D02*
X0080281Y0050801D01*
X0081282Y0058550D02*
X0081282Y0060552D01*
X0080281Y0059551D02*
X0082283Y0059551D01*
X0081907Y0037427D02*
X0081907Y0035425D01*
X0080906Y0036426D02*
X0082908Y0036426D01*
X0082283Y0027676D02*
X0080281Y0027676D01*
X0049783Y0050801D02*
X0047781Y0050801D01*
X0054715Y0051550D02*
X0054528Y0051793D01*
X0054336Y0052031D01*
X0054137Y0052264D01*
X0053933Y0052492D01*
X0053724Y0052715D01*
X0053509Y0052933D01*
X0053289Y0053146D01*
X0053064Y0053353D01*
X0052833Y0053555D01*
X0052598Y0053751D01*
X0052358Y0053941D01*
X0052114Y0054125D01*
X0051865Y0054303D01*
X0051611Y0054475D01*
X0051354Y0054641D01*
X0051093Y0054801D01*
X0050828Y0054954D01*
X0050559Y0055100D01*
X0050286Y0055240D01*
X0050011Y0055373D01*
X0049732Y0055499D01*
X0049450Y0055619D01*
X0049165Y0055731D01*
X0048878Y0055836D01*
X0048588Y0055935D01*
X0048296Y0056026D01*
X0048001Y0056110D01*
X0047705Y0056187D01*
X0047407Y0056257D01*
X0047107Y0056319D01*
X0046806Y0056374D01*
X0046504Y0056421D01*
X0046200Y0056461D01*
X0045896Y0056494D01*
X0045591Y0056519D01*
X0045285Y0056537D01*
X0044979Y0056547D01*
X0044673Y0056550D01*
X0044367Y0056545D01*
X0044061Y0056533D01*
X0043755Y0056513D01*
X0043451Y0056486D01*
X0043146Y0056451D01*
X0042843Y0056409D01*
X0042541Y0056360D01*
X0042240Y0056303D01*
X0041941Y0056238D01*
X0041643Y0056167D01*
X0041348Y0056088D01*
X0041054Y0056002D01*
X0040762Y0055909D01*
X0040473Y0055808D01*
X0040186Y0055701D01*
X0039902Y0055586D01*
X0039621Y0055465D01*
X0039343Y0055337D01*
X0039068Y0055202D01*
X0038797Y0055060D01*
X0038529Y0054912D01*
X0038265Y0054757D01*
X0038005Y0054596D01*
X0037749Y0054429D01*
X0037496Y0054255D01*
X0037249Y0054075D01*
X0037005Y0053889D01*
X0036767Y0053698D01*
X0036533Y0053500D01*
X0036304Y0053297D01*
X0036080Y0053088D01*
X0035861Y0052874D01*
X0035648Y0052654D01*
X0035440Y0052430D01*
X0035237Y0052200D01*
X0035041Y0051966D01*
X0034850Y0051726D01*
X0034665Y0051483D01*
X0034486Y0051234D01*
X0034313Y0050982D01*
X0034146Y0050725D01*
X0033986Y0050464D01*
X0033832Y0050199D01*
X0033685Y0049931D01*
X0033544Y0049659D01*
X0033410Y0049384D01*
X0033283Y0049105D01*
X0033162Y0048824D01*
X0033049Y0048539D01*
X0032943Y0048252D01*
X0032843Y0047963D01*
X0032751Y0047671D01*
X0032666Y0047377D01*
X0032588Y0047081D01*
X0032517Y0046783D01*
X0032454Y0046483D01*
X0032398Y0046182D01*
X0032350Y0045880D01*
X0032309Y0045577D01*
X0032275Y0045273D01*
X0032249Y0044968D01*
X0032230Y0044662D01*
X0032219Y0044356D01*
X0032215Y0044050D01*
X0032219Y0043744D01*
X0032230Y0043438D01*
X0032249Y0043132D01*
X0032275Y0042827D01*
X0032309Y0042523D01*
X0032350Y0042220D01*
X0032398Y0041918D01*
X0032454Y0041617D01*
X0032517Y0041317D01*
X0032588Y0041019D01*
X0032666Y0040723D01*
X0032751Y0040429D01*
X0032843Y0040137D01*
X0032943Y0039848D01*
X0033049Y0039561D01*
X0033162Y0039276D01*
X0033283Y0038995D01*
X0033410Y0038716D01*
X0033544Y0038441D01*
X0033685Y0038169D01*
X0033832Y0037901D01*
X0033986Y0037636D01*
X0034146Y0037375D01*
X0034313Y0037118D01*
X0034486Y0036866D01*
X0034665Y0036617D01*
X0034850Y0036374D01*
X0035041Y0036134D01*
X0035237Y0035900D01*
X0035440Y0035670D01*
X0035648Y0035446D01*
X0035861Y0035226D01*
X0036080Y0035012D01*
X0036304Y0034803D01*
X0036533Y0034600D01*
X0036767Y0034402D01*
X0037005Y0034211D01*
X0037249Y0034025D01*
X0037496Y0033845D01*
X0037749Y0033671D01*
X0038005Y0033504D01*
X0038265Y0033343D01*
X0038529Y0033188D01*
X0038797Y0033040D01*
X0039068Y0032898D01*
X0039343Y0032763D01*
X0039621Y0032635D01*
X0039902Y0032514D01*
X0040186Y0032399D01*
X0040473Y0032292D01*
X0040762Y0032191D01*
X0041054Y0032098D01*
X0041348Y0032012D01*
X0041643Y0031933D01*
X0041941Y0031862D01*
X0042240Y0031797D01*
X0042541Y0031740D01*
X0042843Y0031691D01*
X0043146Y0031649D01*
X0043451Y0031614D01*
X0043755Y0031587D01*
X0044061Y0031567D01*
X0044367Y0031555D01*
X0044673Y0031550D01*
X0044979Y0031553D01*
X0045285Y0031563D01*
X0045591Y0031581D01*
X0045896Y0031606D01*
X0046200Y0031639D01*
X0046504Y0031679D01*
X0046806Y0031726D01*
X0047107Y0031781D01*
X0047407Y0031843D01*
X0047705Y0031913D01*
X0048001Y0031990D01*
X0048296Y0032074D01*
X0048588Y0032165D01*
X0048878Y0032264D01*
X0049165Y0032369D01*
X0049450Y0032481D01*
X0049732Y0032601D01*
X0050011Y0032727D01*
X0050286Y0032860D01*
X0050559Y0033000D01*
X0050828Y0033146D01*
X0051093Y0033299D01*
X0051354Y0033459D01*
X0051611Y0033625D01*
X0051865Y0033797D01*
X0052114Y0033975D01*
X0052358Y0034159D01*
X0052598Y0034349D01*
X0052833Y0034545D01*
X0053064Y0034747D01*
X0053289Y0034954D01*
X0053509Y0035167D01*
X0053724Y0035385D01*
X0053933Y0035608D01*
X0054137Y0035836D01*
X0054336Y0036069D01*
X0054528Y0036307D01*
X0054715Y0036550D01*
X0042283Y0037051D02*
X0040281Y0037051D01*
X0041282Y0038052D02*
X0041282Y0036050D01*
D14*
X0054715Y0036550D02*
X0054715Y0051550D01*
D15*
X0034715Y0044050D02*
X0034718Y0044295D01*
X0034727Y0044541D01*
X0034742Y0044786D01*
X0034763Y0045030D01*
X0034790Y0045274D01*
X0034823Y0045517D01*
X0034862Y0045760D01*
X0034907Y0046001D01*
X0034958Y0046241D01*
X0035015Y0046480D01*
X0035077Y0046717D01*
X0035146Y0046953D01*
X0035220Y0047187D01*
X0035300Y0047419D01*
X0035385Y0047649D01*
X0035476Y0047877D01*
X0035573Y0048102D01*
X0035675Y0048326D01*
X0035783Y0048546D01*
X0035896Y0048764D01*
X0036014Y0048979D01*
X0036138Y0049191D01*
X0036266Y0049400D01*
X0036400Y0049606D01*
X0036539Y0049808D01*
X0036683Y0050007D01*
X0036832Y0050202D01*
X0036985Y0050394D01*
X0037143Y0050582D01*
X0037305Y0050766D01*
X0037473Y0050945D01*
X0037644Y0051121D01*
X0037820Y0051292D01*
X0037999Y0051460D01*
X0038183Y0051622D01*
X0038371Y0051780D01*
X0038563Y0051933D01*
X0038758Y0052082D01*
X0038957Y0052226D01*
X0039159Y0052365D01*
X0039365Y0052499D01*
X0039574Y0052627D01*
X0039786Y0052751D01*
X0040001Y0052869D01*
X0040219Y0052982D01*
X0040439Y0053090D01*
X0040663Y0053192D01*
X0040888Y0053289D01*
X0041116Y0053380D01*
X0041346Y0053465D01*
X0041578Y0053545D01*
X0041812Y0053619D01*
X0042048Y0053688D01*
X0042285Y0053750D01*
X0042524Y0053807D01*
X0042764Y0053858D01*
X0043005Y0053903D01*
X0043248Y0053942D01*
X0043491Y0053975D01*
X0043735Y0054002D01*
X0043979Y0054023D01*
X0044224Y0054038D01*
X0044470Y0054047D01*
X0044715Y0054050D01*
X0044960Y0054047D01*
X0045206Y0054038D01*
X0045451Y0054023D01*
X0045695Y0054002D01*
X0045939Y0053975D01*
X0046182Y0053942D01*
X0046425Y0053903D01*
X0046666Y0053858D01*
X0046906Y0053807D01*
X0047145Y0053750D01*
X0047382Y0053688D01*
X0047618Y0053619D01*
X0047852Y0053545D01*
X0048084Y0053465D01*
X0048314Y0053380D01*
X0048542Y0053289D01*
X0048767Y0053192D01*
X0048991Y0053090D01*
X0049211Y0052982D01*
X0049429Y0052869D01*
X0049644Y0052751D01*
X0049856Y0052627D01*
X0050065Y0052499D01*
X0050271Y0052365D01*
X0050473Y0052226D01*
X0050672Y0052082D01*
X0050867Y0051933D01*
X0051059Y0051780D01*
X0051247Y0051622D01*
X0051431Y0051460D01*
X0051610Y0051292D01*
X0051786Y0051121D01*
X0051957Y0050945D01*
X0052125Y0050766D01*
X0052287Y0050582D01*
X0052445Y0050394D01*
X0052598Y0050202D01*
X0052747Y0050007D01*
X0052891Y0049808D01*
X0053030Y0049606D01*
X0053164Y0049400D01*
X0053292Y0049191D01*
X0053416Y0048979D01*
X0053534Y0048764D01*
X0053647Y0048546D01*
X0053755Y0048326D01*
X0053857Y0048102D01*
X0053954Y0047877D01*
X0054045Y0047649D01*
X0054130Y0047419D01*
X0054210Y0047187D01*
X0054284Y0046953D01*
X0054353Y0046717D01*
X0054415Y0046480D01*
X0054472Y0046241D01*
X0054523Y0046001D01*
X0054568Y0045760D01*
X0054607Y0045517D01*
X0054640Y0045274D01*
X0054667Y0045030D01*
X0054688Y0044786D01*
X0054703Y0044541D01*
X0054712Y0044295D01*
X0054715Y0044050D01*
X0054712Y0043805D01*
X0054703Y0043559D01*
X0054688Y0043314D01*
X0054667Y0043070D01*
X0054640Y0042826D01*
X0054607Y0042583D01*
X0054568Y0042340D01*
X0054523Y0042099D01*
X0054472Y0041859D01*
X0054415Y0041620D01*
X0054353Y0041383D01*
X0054284Y0041147D01*
X0054210Y0040913D01*
X0054130Y0040681D01*
X0054045Y0040451D01*
X0053954Y0040223D01*
X0053857Y0039998D01*
X0053755Y0039774D01*
X0053647Y0039554D01*
X0053534Y0039336D01*
X0053416Y0039121D01*
X0053292Y0038909D01*
X0053164Y0038700D01*
X0053030Y0038494D01*
X0052891Y0038292D01*
X0052747Y0038093D01*
X0052598Y0037898D01*
X0052445Y0037706D01*
X0052287Y0037518D01*
X0052125Y0037334D01*
X0051957Y0037155D01*
X0051786Y0036979D01*
X0051610Y0036808D01*
X0051431Y0036640D01*
X0051247Y0036478D01*
X0051059Y0036320D01*
X0050867Y0036167D01*
X0050672Y0036018D01*
X0050473Y0035874D01*
X0050271Y0035735D01*
X0050065Y0035601D01*
X0049856Y0035473D01*
X0049644Y0035349D01*
X0049429Y0035231D01*
X0049211Y0035118D01*
X0048991Y0035010D01*
X0048767Y0034908D01*
X0048542Y0034811D01*
X0048314Y0034720D01*
X0048084Y0034635D01*
X0047852Y0034555D01*
X0047618Y0034481D01*
X0047382Y0034412D01*
X0047145Y0034350D01*
X0046906Y0034293D01*
X0046666Y0034242D01*
X0046425Y0034197D01*
X0046182Y0034158D01*
X0045939Y0034125D01*
X0045695Y0034098D01*
X0045451Y0034077D01*
X0045206Y0034062D01*
X0044960Y0034053D01*
X0044715Y0034050D01*
X0044470Y0034053D01*
X0044224Y0034062D01*
X0043979Y0034077D01*
X0043735Y0034098D01*
X0043491Y0034125D01*
X0043248Y0034158D01*
X0043005Y0034197D01*
X0042764Y0034242D01*
X0042524Y0034293D01*
X0042285Y0034350D01*
X0042048Y0034412D01*
X0041812Y0034481D01*
X0041578Y0034555D01*
X0041346Y0034635D01*
X0041116Y0034720D01*
X0040888Y0034811D01*
X0040663Y0034908D01*
X0040439Y0035010D01*
X0040219Y0035118D01*
X0040001Y0035231D01*
X0039786Y0035349D01*
X0039574Y0035473D01*
X0039365Y0035601D01*
X0039159Y0035735D01*
X0038957Y0035874D01*
X0038758Y0036018D01*
X0038563Y0036167D01*
X0038371Y0036320D01*
X0038183Y0036478D01*
X0037999Y0036640D01*
X0037820Y0036808D01*
X0037644Y0036979D01*
X0037473Y0037155D01*
X0037305Y0037334D01*
X0037143Y0037518D01*
X0036985Y0037706D01*
X0036832Y0037898D01*
X0036683Y0038093D01*
X0036539Y0038292D01*
X0036400Y0038494D01*
X0036266Y0038700D01*
X0036138Y0038909D01*
X0036014Y0039121D01*
X0035896Y0039336D01*
X0035783Y0039554D01*
X0035675Y0039774D01*
X0035573Y0039998D01*
X0035476Y0040223D01*
X0035385Y0040451D01*
X0035300Y0040681D01*
X0035220Y0040913D01*
X0035146Y0041147D01*
X0035077Y0041383D01*
X0035015Y0041620D01*
X0034958Y0041859D01*
X0034907Y0042099D01*
X0034862Y0042340D01*
X0034823Y0042583D01*
X0034790Y0042826D01*
X0034763Y0043070D01*
X0034742Y0043314D01*
X0034727Y0043559D01*
X0034718Y0043805D01*
X0034715Y0044050D01*
X0031875Y0064200D02*
X0030224Y0065851D01*
X0029673Y0065301D02*
X0031875Y0067503D01*
X0029673Y0067503D02*
X0029673Y0064200D01*
X0048423Y0071700D02*
X0048423Y0075003D01*
X0048974Y0073351D02*
X0050625Y0071700D01*
X0048423Y0072801D02*
X0050625Y0075003D01*
X0067173Y0067503D02*
X0067173Y0064200D01*
X0067173Y0065301D02*
X0069375Y0067503D01*
X0067724Y0065851D02*
X0069375Y0064200D01*
X0058966Y0023903D02*
X0056765Y0021701D01*
X0057315Y0022251D02*
X0058966Y0020600D01*
X0056765Y0020600D02*
X0056765Y0023903D01*
X0040216Y0016403D02*
X0038015Y0014201D01*
X0038565Y0014751D02*
X0040216Y0013100D01*
X0038015Y0013100D02*
X0038015Y0016403D01*
X0021466Y0020600D02*
X0019815Y0022251D01*
X0019265Y0021701D02*
X0021466Y0023903D01*
X0019265Y0023903D02*
X0019265Y0020600D01*
D16*
X0017965Y0019300D02*
X0017965Y0018800D01*
X0033965Y0018800D01*
X0033965Y0019300D01*
X0017965Y0019300D01*
X0017965Y0031300D01*
X0017965Y0031800D01*
X0033965Y0031800D01*
X0033965Y0031300D01*
X0033965Y0019300D01*
X0036715Y0023800D02*
X0036715Y0011800D01*
X0052715Y0011800D01*
X0052715Y0011300D01*
X0036715Y0011300D01*
X0036715Y0011800D01*
X0036715Y0023800D02*
X0036715Y0024300D01*
X0052715Y0024300D01*
X0052715Y0023800D01*
X0052715Y0011800D01*
X0055465Y0018800D02*
X0055465Y0019300D01*
X0055465Y0031300D01*
X0055465Y0031800D01*
X0071465Y0031800D01*
X0071465Y0031300D01*
X0071465Y0019300D01*
X0071465Y0018800D01*
X0055465Y0018800D01*
X0055465Y0019300D02*
X0071465Y0019300D01*
X0071465Y0031300D02*
X0055465Y0031300D01*
X0052715Y0023800D02*
X0036715Y0023800D01*
X0033965Y0031300D02*
X0017965Y0031300D01*
X0017965Y0056300D02*
X0033965Y0056300D01*
X0033965Y0056800D01*
X0033965Y0068800D01*
X0017965Y0068800D01*
X0017965Y0069300D01*
X0033965Y0069300D01*
X0033965Y0068800D01*
X0036715Y0064300D02*
X0036715Y0076300D01*
X0036715Y0076800D01*
X0052715Y0076800D01*
X0052715Y0076300D01*
X0052715Y0064300D01*
X0052715Y0063800D01*
X0036715Y0063800D01*
X0036715Y0064300D01*
X0052715Y0064300D01*
X0055465Y0068800D02*
X0055465Y0069300D01*
X0071465Y0069300D01*
X0071465Y0068800D01*
X0071465Y0056800D01*
X0071465Y0056300D01*
X0055465Y0056300D01*
X0055465Y0056800D01*
X0055465Y0068800D01*
X0071465Y0068800D01*
X0071465Y0056800D02*
X0055465Y0056800D01*
X0052715Y0076300D02*
X0036715Y0076300D01*
X0017965Y0068800D02*
X0017965Y0056800D01*
X0033965Y0056800D01*
X0017965Y0056800D02*
X0017965Y0056300D01*
D17*
X0025965Y0064050D03*
X0044715Y0071550D03*
X0063465Y0064050D03*
X0063465Y0024050D03*
X0044715Y0016550D03*
X0025965Y0024050D03*
M02*
