%
M48
M72
T01C0.01400
T02C0.03200
%
T01
X10965Y62800
X65965Y44050
T02
X25965Y15300
X44715Y7800
X63465Y15300
X77215Y24050
X77215Y34050
X63465Y35300
X49715Y44050
X25965Y35300
X39715Y44050
X25965Y52800
X44715Y60300
X63465Y52800
X77215Y54050
X77215Y64050
X63465Y72800
X44715Y80300
X25965Y72800
X44715Y27800
M30
