G75*
%MOIN*%
%OFA0B0*%
%FSLAX25Y25*%
%IPPOS*%
%LPD*%
%AMOC8*
5,1,8,0,0,1.08239X$1,22.5*
%
%ADD10C,0.00100*%
%ADD11R,0.11811X0.06299*%
%ADD12R,0.04724X0.02165*%
%ADD13R,0.03150X0.04724*%
%ADD14OC8,0.06300*%
%ADD15C,0.06300*%
%ADD16R,0.03937X0.04331*%
%ADD17R,0.02480X0.03268*%
%ADD18OC8,0.04800*%
%ADD19R,0.04331X0.03937*%
%ADD20C,0.04800*%
%ADD21C,0.00800*%
%ADD22R,0.02800X0.02800*%
D10*
X0001715Y0044050D02*
X0001728Y0045105D01*
X0001767Y0046160D01*
X0001832Y0047213D01*
X0001922Y0048265D01*
X0002038Y0049314D01*
X0002180Y0050359D01*
X0002348Y0051401D01*
X0002541Y0052439D01*
X0002760Y0053471D01*
X0003004Y0054498D01*
X0003273Y0055519D01*
X0003567Y0056532D01*
X0003885Y0057538D01*
X0004229Y0058536D01*
X0004596Y0059525D01*
X0004988Y0060505D01*
X0005404Y0061475D01*
X0005843Y0062435D01*
X0006306Y0063383D01*
X0006792Y0064320D01*
X0007301Y0065245D01*
X0007833Y0066156D01*
X0008386Y0067055D01*
X0008962Y0067940D01*
X0009559Y0068810D01*
X0010177Y0069665D01*
X0010816Y0070505D01*
X0011476Y0071329D01*
X0012155Y0072136D01*
X0012854Y0072927D01*
X0013572Y0073700D01*
X0014309Y0074456D01*
X0015065Y0075193D01*
X0015838Y0075911D01*
X0016629Y0076610D01*
X0017436Y0077289D01*
X0018260Y0077949D01*
X0019100Y0078588D01*
X0019955Y0079206D01*
X0020825Y0079803D01*
X0021710Y0080379D01*
X0022609Y0080932D01*
X0023520Y0081464D01*
X0024445Y0081973D01*
X0025382Y0082459D01*
X0026330Y0082922D01*
X0027290Y0083361D01*
X0028260Y0083777D01*
X0029240Y0084169D01*
X0030229Y0084536D01*
X0031227Y0084880D01*
X0032233Y0085198D01*
X0033246Y0085492D01*
X0034267Y0085761D01*
X0035294Y0086005D01*
X0036326Y0086224D01*
X0037364Y0086417D01*
X0038406Y0086585D01*
X0039451Y0086727D01*
X0040500Y0086843D01*
X0041552Y0086933D01*
X0042605Y0086998D01*
X0043660Y0087037D01*
X0044715Y0087050D01*
X0045770Y0087037D01*
X0046825Y0086998D01*
X0047878Y0086933D01*
X0048930Y0086843D01*
X0049979Y0086727D01*
X0051024Y0086585D01*
X0052066Y0086417D01*
X0053104Y0086224D01*
X0054136Y0086005D01*
X0055163Y0085761D01*
X0056184Y0085492D01*
X0057197Y0085198D01*
X0058203Y0084880D01*
X0059201Y0084536D01*
X0060190Y0084169D01*
X0061170Y0083777D01*
X0062140Y0083361D01*
X0063100Y0082922D01*
X0064048Y0082459D01*
X0064985Y0081973D01*
X0065910Y0081464D01*
X0066821Y0080932D01*
X0067720Y0080379D01*
X0068605Y0079803D01*
X0069475Y0079206D01*
X0070330Y0078588D01*
X0071170Y0077949D01*
X0071994Y0077289D01*
X0072801Y0076610D01*
X0073592Y0075911D01*
X0074365Y0075193D01*
X0075121Y0074456D01*
X0075858Y0073700D01*
X0076576Y0072927D01*
X0077275Y0072136D01*
X0077954Y0071329D01*
X0078614Y0070505D01*
X0079253Y0069665D01*
X0079871Y0068810D01*
X0080468Y0067940D01*
X0081044Y0067055D01*
X0081597Y0066156D01*
X0082129Y0065245D01*
X0082638Y0064320D01*
X0083124Y0063383D01*
X0083587Y0062435D01*
X0084026Y0061475D01*
X0084442Y0060505D01*
X0084834Y0059525D01*
X0085201Y0058536D01*
X0085545Y0057538D01*
X0085863Y0056532D01*
X0086157Y0055519D01*
X0086426Y0054498D01*
X0086670Y0053471D01*
X0086889Y0052439D01*
X0087082Y0051401D01*
X0087250Y0050359D01*
X0087392Y0049314D01*
X0087508Y0048265D01*
X0087598Y0047213D01*
X0087663Y0046160D01*
X0087702Y0045105D01*
X0087715Y0044050D01*
X0087702Y0042995D01*
X0087663Y0041940D01*
X0087598Y0040887D01*
X0087508Y0039835D01*
X0087392Y0038786D01*
X0087250Y0037741D01*
X0087082Y0036699D01*
X0086889Y0035661D01*
X0086670Y0034629D01*
X0086426Y0033602D01*
X0086157Y0032581D01*
X0085863Y0031568D01*
X0085545Y0030562D01*
X0085201Y0029564D01*
X0084834Y0028575D01*
X0084442Y0027595D01*
X0084026Y0026625D01*
X0083587Y0025665D01*
X0083124Y0024717D01*
X0082638Y0023780D01*
X0082129Y0022855D01*
X0081597Y0021944D01*
X0081044Y0021045D01*
X0080468Y0020160D01*
X0079871Y0019290D01*
X0079253Y0018435D01*
X0078614Y0017595D01*
X0077954Y0016771D01*
X0077275Y0015964D01*
X0076576Y0015173D01*
X0075858Y0014400D01*
X0075121Y0013644D01*
X0074365Y0012907D01*
X0073592Y0012189D01*
X0072801Y0011490D01*
X0071994Y0010811D01*
X0071170Y0010151D01*
X0070330Y0009512D01*
X0069475Y0008894D01*
X0068605Y0008297D01*
X0067720Y0007721D01*
X0066821Y0007168D01*
X0065910Y0006636D01*
X0064985Y0006127D01*
X0064048Y0005641D01*
X0063100Y0005178D01*
X0062140Y0004739D01*
X0061170Y0004323D01*
X0060190Y0003931D01*
X0059201Y0003564D01*
X0058203Y0003220D01*
X0057197Y0002902D01*
X0056184Y0002608D01*
X0055163Y0002339D01*
X0054136Y0002095D01*
X0053104Y0001876D01*
X0052066Y0001683D01*
X0051024Y0001515D01*
X0049979Y0001373D01*
X0048930Y0001257D01*
X0047878Y0001167D01*
X0046825Y0001102D01*
X0045770Y0001063D01*
X0044715Y0001050D01*
X0043660Y0001063D01*
X0042605Y0001102D01*
X0041552Y0001167D01*
X0040500Y0001257D01*
X0039451Y0001373D01*
X0038406Y0001515D01*
X0037364Y0001683D01*
X0036326Y0001876D01*
X0035294Y0002095D01*
X0034267Y0002339D01*
X0033246Y0002608D01*
X0032233Y0002902D01*
X0031227Y0003220D01*
X0030229Y0003564D01*
X0029240Y0003931D01*
X0028260Y0004323D01*
X0027290Y0004739D01*
X0026330Y0005178D01*
X0025382Y0005641D01*
X0024445Y0006127D01*
X0023520Y0006636D01*
X0022609Y0007168D01*
X0021710Y0007721D01*
X0020825Y0008297D01*
X0019955Y0008894D01*
X0019100Y0009512D01*
X0018260Y0010151D01*
X0017436Y0010811D01*
X0016629Y0011490D01*
X0015838Y0012189D01*
X0015065Y0012907D01*
X0014309Y0013644D01*
X0013572Y0014400D01*
X0012854Y0015173D01*
X0012155Y0015964D01*
X0011476Y0016771D01*
X0010816Y0017595D01*
X0010177Y0018435D01*
X0009559Y0019290D01*
X0008962Y0020160D01*
X0008386Y0021045D01*
X0007833Y0021944D01*
X0007301Y0022855D01*
X0006792Y0023780D01*
X0006306Y0024717D01*
X0005843Y0025665D01*
X0005404Y0026625D01*
X0004988Y0027595D01*
X0004596Y0028575D01*
X0004229Y0029564D01*
X0003885Y0030562D01*
X0003567Y0031568D01*
X0003273Y0032581D01*
X0003004Y0033602D01*
X0002760Y0034629D01*
X0002541Y0035661D01*
X0002348Y0036699D01*
X0002180Y0037741D01*
X0002038Y0038786D01*
X0001922Y0039835D01*
X0001832Y0040887D01*
X0001767Y0041940D01*
X0001728Y0042995D01*
X0001715Y0044050D01*
D11*
X0009715Y0038341D03*
X0009715Y0049759D03*
D12*
X0017096Y0059060D03*
X0017096Y0062800D03*
X0017096Y0066540D03*
X0027333Y0066540D03*
X0027333Y0062800D03*
X0027333Y0059060D03*
D13*
X0041171Y0066550D03*
X0048258Y0066550D03*
X0048258Y0074050D03*
X0041171Y0074050D03*
X0041171Y0050300D03*
X0048258Y0050300D03*
D14*
X0077215Y0054050D03*
X0077215Y0024050D03*
D15*
X0077215Y0034050D03*
X0077215Y0064050D03*
D16*
X0059715Y0047396D03*
X0059715Y0040704D03*
D17*
X0060187Y0062800D03*
X0069242Y0062800D03*
D18*
X0049715Y0044050D03*
X0039715Y0044050D03*
D19*
X0030561Y0044050D03*
X0023868Y0044050D03*
D20*
X0023565Y0015300D02*
X0028365Y0015300D01*
X0042315Y0007800D02*
X0047115Y0007800D01*
X0061065Y0015300D02*
X0065865Y0015300D01*
X0047115Y0027800D02*
X0042315Y0027800D01*
X0028365Y0035300D02*
X0023565Y0035300D01*
X0023565Y0052800D02*
X0028365Y0052800D01*
X0042315Y0060300D02*
X0047115Y0060300D01*
X0061065Y0052800D02*
X0065865Y0052800D01*
X0065865Y0035300D02*
X0061065Y0035300D01*
X0061065Y0072800D02*
X0065865Y0072800D01*
X0047115Y0080300D02*
X0042315Y0080300D01*
X0028365Y0072800D02*
X0023565Y0072800D01*
D21*
X0022215Y0077800D02*
X0022039Y0077746D01*
X0021864Y0077688D01*
X0021691Y0077626D01*
X0021519Y0077559D01*
X0021349Y0077489D01*
X0021181Y0077414D01*
X0021014Y0077335D01*
X0020850Y0077252D01*
X0020688Y0077165D01*
X0020528Y0077074D01*
X0020370Y0076979D01*
X0020214Y0076880D01*
X0020061Y0076778D01*
X0019911Y0076672D01*
X0019763Y0076562D01*
X0019618Y0076449D01*
X0019475Y0076332D01*
X0019336Y0076212D01*
X0019200Y0076088D01*
X0019066Y0075961D01*
X0018936Y0075831D01*
X0018809Y0075697D01*
X0018685Y0075561D01*
X0018565Y0075422D01*
X0018448Y0075279D01*
X0018335Y0075134D01*
X0018225Y0074986D01*
X0018119Y0074836D01*
X0018017Y0074683D01*
X0017918Y0074527D01*
X0017823Y0074369D01*
X0017732Y0074209D01*
X0017645Y0074047D01*
X0017562Y0073883D01*
X0017483Y0073716D01*
X0017408Y0073548D01*
X0017338Y0073378D01*
X0017271Y0073206D01*
X0017209Y0073033D01*
X0017151Y0072858D01*
X0017097Y0072682D01*
X0017096Y0072682D02*
X0017096Y0066540D01*
X0017096Y0062800D02*
X0010965Y0062800D01*
X0013474Y0059060D02*
X0009715Y0055300D01*
X0009715Y0049759D01*
X0018465Y0054050D02*
X0018465Y0041550D01*
X0015965Y0039050D01*
X0010423Y0039050D01*
X0009715Y0038341D01*
X0009715Y0031550D01*
X0014715Y0026550D01*
X0029715Y0026550D01*
X0037215Y0019050D01*
X0053465Y0019050D01*
X0063465Y0029050D01*
X0063465Y0035300D01*
X0059715Y0039050D01*
X0059715Y0040704D01*
X0063465Y0035300D02*
X0075965Y0035300D01*
X0077215Y0034050D01*
X0082215Y0039050D01*
X0082215Y0057800D01*
X0077215Y0062800D01*
X0077215Y0064050D01*
X0069242Y0062800D02*
X0069242Y0062022D01*
X0077215Y0054050D01*
X0069242Y0062800D02*
X0068465Y0063578D01*
X0068465Y0065300D01*
X0067215Y0066550D01*
X0060965Y0066550D01*
X0053465Y0074050D01*
X0048258Y0074050D01*
X0041171Y0074050D02*
X0041171Y0066550D01*
X0041161Y0066540D01*
X0027333Y0066540D01*
X0027333Y0062800D02*
X0032215Y0062800D01*
X0034715Y0060300D01*
X0034715Y0050300D01*
X0041171Y0050300D01*
X0040965Y0051757D01*
X0040965Y0054050D01*
X0042215Y0055300D01*
X0048465Y0055300D01*
X0052215Y0059050D01*
X0052215Y0061550D01*
X0048258Y0065507D01*
X0048258Y0066550D01*
X0052215Y0084050D02*
X0051775Y0084211D01*
X0051331Y0084361D01*
X0050884Y0084500D01*
X0050433Y0084629D01*
X0049980Y0084747D01*
X0049524Y0084853D01*
X0049065Y0084949D01*
X0048604Y0085033D01*
X0048141Y0085107D01*
X0047677Y0085169D01*
X0047211Y0085219D01*
X0046744Y0085259D01*
X0046277Y0085287D01*
X0045808Y0085304D01*
X0045340Y0085310D01*
X0044872Y0085304D01*
X0044403Y0085287D01*
X0043936Y0085259D01*
X0043469Y0085219D01*
X0043003Y0085169D01*
X0042539Y0085107D01*
X0042076Y0085033D01*
X0041615Y0084949D01*
X0041156Y0084853D01*
X0040700Y0084747D01*
X0040247Y0084629D01*
X0039796Y0084500D01*
X0039349Y0084361D01*
X0038905Y0084211D01*
X0038465Y0084050D01*
X0032215Y0077800D01*
X0022215Y0077800D01*
X0023474Y0059060D02*
X0018465Y0054050D01*
X0017096Y0059060D02*
X0013474Y0059060D01*
X0023474Y0059060D02*
X0027333Y0059060D01*
X0034715Y0050300D02*
X0032215Y0047800D01*
X0024715Y0047800D01*
X0023868Y0046954D01*
X0023868Y0044050D01*
X0030561Y0044050D02*
X0039715Y0044050D01*
X0048258Y0045507D02*
X0049715Y0044050D01*
X0048258Y0045507D02*
X0048258Y0050300D01*
X0054715Y0050300D02*
X0054715Y0060300D01*
X0057215Y0062800D01*
X0060187Y0062800D01*
X0063465Y0072800D02*
X0052215Y0084050D01*
X0054715Y0050300D02*
X0057618Y0047396D01*
X0059715Y0047396D01*
X0060118Y0047800D01*
X0065965Y0047800D01*
X0065965Y0044050D01*
D22*
X0065965Y0044050D03*
X0010965Y0062800D03*
M02*
