G75*
%MOIN*%
%OFA0B0*%
%FSLAX25Y25*%
%IPPOS*%
%LPD*%
%AMOC8*
5,1,8,0,0,1.08239X$1,22.5*
%
%ADD10C,0.00100*%
%ADD11OC8,0.06300*%
%ADD12C,0.06300*%
%ADD13OC8,0.04800*%
%ADD14C,0.04800*%
%ADD15R,0.05906X0.08661*%
%ADD16C,0.00800*%
%ADD17R,0.02800X0.02800*%
D10*
X0001715Y0044050D02*
X0001728Y0045105D01*
X0001767Y0046160D01*
X0001832Y0047213D01*
X0001922Y0048265D01*
X0002038Y0049314D01*
X0002180Y0050359D01*
X0002348Y0051401D01*
X0002541Y0052439D01*
X0002760Y0053471D01*
X0003004Y0054498D01*
X0003273Y0055519D01*
X0003567Y0056532D01*
X0003885Y0057538D01*
X0004229Y0058536D01*
X0004596Y0059525D01*
X0004988Y0060505D01*
X0005404Y0061475D01*
X0005843Y0062435D01*
X0006306Y0063383D01*
X0006792Y0064320D01*
X0007301Y0065245D01*
X0007833Y0066156D01*
X0008386Y0067055D01*
X0008962Y0067940D01*
X0009559Y0068810D01*
X0010177Y0069665D01*
X0010816Y0070505D01*
X0011476Y0071329D01*
X0012155Y0072136D01*
X0012854Y0072927D01*
X0013572Y0073700D01*
X0014309Y0074456D01*
X0015065Y0075193D01*
X0015838Y0075911D01*
X0016629Y0076610D01*
X0017436Y0077289D01*
X0018260Y0077949D01*
X0019100Y0078588D01*
X0019955Y0079206D01*
X0020825Y0079803D01*
X0021710Y0080379D01*
X0022609Y0080932D01*
X0023520Y0081464D01*
X0024445Y0081973D01*
X0025382Y0082459D01*
X0026330Y0082922D01*
X0027290Y0083361D01*
X0028260Y0083777D01*
X0029240Y0084169D01*
X0030229Y0084536D01*
X0031227Y0084880D01*
X0032233Y0085198D01*
X0033246Y0085492D01*
X0034267Y0085761D01*
X0035294Y0086005D01*
X0036326Y0086224D01*
X0037364Y0086417D01*
X0038406Y0086585D01*
X0039451Y0086727D01*
X0040500Y0086843D01*
X0041552Y0086933D01*
X0042605Y0086998D01*
X0043660Y0087037D01*
X0044715Y0087050D01*
X0045770Y0087037D01*
X0046825Y0086998D01*
X0047878Y0086933D01*
X0048930Y0086843D01*
X0049979Y0086727D01*
X0051024Y0086585D01*
X0052066Y0086417D01*
X0053104Y0086224D01*
X0054136Y0086005D01*
X0055163Y0085761D01*
X0056184Y0085492D01*
X0057197Y0085198D01*
X0058203Y0084880D01*
X0059201Y0084536D01*
X0060190Y0084169D01*
X0061170Y0083777D01*
X0062140Y0083361D01*
X0063100Y0082922D01*
X0064048Y0082459D01*
X0064985Y0081973D01*
X0065910Y0081464D01*
X0066821Y0080932D01*
X0067720Y0080379D01*
X0068605Y0079803D01*
X0069475Y0079206D01*
X0070330Y0078588D01*
X0071170Y0077949D01*
X0071994Y0077289D01*
X0072801Y0076610D01*
X0073592Y0075911D01*
X0074365Y0075193D01*
X0075121Y0074456D01*
X0075858Y0073700D01*
X0076576Y0072927D01*
X0077275Y0072136D01*
X0077954Y0071329D01*
X0078614Y0070505D01*
X0079253Y0069665D01*
X0079871Y0068810D01*
X0080468Y0067940D01*
X0081044Y0067055D01*
X0081597Y0066156D01*
X0082129Y0065245D01*
X0082638Y0064320D01*
X0083124Y0063383D01*
X0083587Y0062435D01*
X0084026Y0061475D01*
X0084442Y0060505D01*
X0084834Y0059525D01*
X0085201Y0058536D01*
X0085545Y0057538D01*
X0085863Y0056532D01*
X0086157Y0055519D01*
X0086426Y0054498D01*
X0086670Y0053471D01*
X0086889Y0052439D01*
X0087082Y0051401D01*
X0087250Y0050359D01*
X0087392Y0049314D01*
X0087508Y0048265D01*
X0087598Y0047213D01*
X0087663Y0046160D01*
X0087702Y0045105D01*
X0087715Y0044050D01*
X0087702Y0042995D01*
X0087663Y0041940D01*
X0087598Y0040887D01*
X0087508Y0039835D01*
X0087392Y0038786D01*
X0087250Y0037741D01*
X0087082Y0036699D01*
X0086889Y0035661D01*
X0086670Y0034629D01*
X0086426Y0033602D01*
X0086157Y0032581D01*
X0085863Y0031568D01*
X0085545Y0030562D01*
X0085201Y0029564D01*
X0084834Y0028575D01*
X0084442Y0027595D01*
X0084026Y0026625D01*
X0083587Y0025665D01*
X0083124Y0024717D01*
X0082638Y0023780D01*
X0082129Y0022855D01*
X0081597Y0021944D01*
X0081044Y0021045D01*
X0080468Y0020160D01*
X0079871Y0019290D01*
X0079253Y0018435D01*
X0078614Y0017595D01*
X0077954Y0016771D01*
X0077275Y0015964D01*
X0076576Y0015173D01*
X0075858Y0014400D01*
X0075121Y0013644D01*
X0074365Y0012907D01*
X0073592Y0012189D01*
X0072801Y0011490D01*
X0071994Y0010811D01*
X0071170Y0010151D01*
X0070330Y0009512D01*
X0069475Y0008894D01*
X0068605Y0008297D01*
X0067720Y0007721D01*
X0066821Y0007168D01*
X0065910Y0006636D01*
X0064985Y0006127D01*
X0064048Y0005641D01*
X0063100Y0005178D01*
X0062140Y0004739D01*
X0061170Y0004323D01*
X0060190Y0003931D01*
X0059201Y0003564D01*
X0058203Y0003220D01*
X0057197Y0002902D01*
X0056184Y0002608D01*
X0055163Y0002339D01*
X0054136Y0002095D01*
X0053104Y0001876D01*
X0052066Y0001683D01*
X0051024Y0001515D01*
X0049979Y0001373D01*
X0048930Y0001257D01*
X0047878Y0001167D01*
X0046825Y0001102D01*
X0045770Y0001063D01*
X0044715Y0001050D01*
X0043660Y0001063D01*
X0042605Y0001102D01*
X0041552Y0001167D01*
X0040500Y0001257D01*
X0039451Y0001373D01*
X0038406Y0001515D01*
X0037364Y0001683D01*
X0036326Y0001876D01*
X0035294Y0002095D01*
X0034267Y0002339D01*
X0033246Y0002608D01*
X0032233Y0002902D01*
X0031227Y0003220D01*
X0030229Y0003564D01*
X0029240Y0003931D01*
X0028260Y0004323D01*
X0027290Y0004739D01*
X0026330Y0005178D01*
X0025382Y0005641D01*
X0024445Y0006127D01*
X0023520Y0006636D01*
X0022609Y0007168D01*
X0021710Y0007721D01*
X0020825Y0008297D01*
X0019955Y0008894D01*
X0019100Y0009512D01*
X0018260Y0010151D01*
X0017436Y0010811D01*
X0016629Y0011490D01*
X0015838Y0012189D01*
X0015065Y0012907D01*
X0014309Y0013644D01*
X0013572Y0014400D01*
X0012854Y0015173D01*
X0012155Y0015964D01*
X0011476Y0016771D01*
X0010816Y0017595D01*
X0010177Y0018435D01*
X0009559Y0019290D01*
X0008962Y0020160D01*
X0008386Y0021045D01*
X0007833Y0021944D01*
X0007301Y0022855D01*
X0006792Y0023780D01*
X0006306Y0024717D01*
X0005843Y0025665D01*
X0005404Y0026625D01*
X0004988Y0027595D01*
X0004596Y0028575D01*
X0004229Y0029564D01*
X0003885Y0030562D01*
X0003567Y0031568D01*
X0003273Y0032581D01*
X0003004Y0033602D01*
X0002760Y0034629D01*
X0002541Y0035661D01*
X0002348Y0036699D01*
X0002180Y0037741D01*
X0002038Y0038786D01*
X0001922Y0039835D01*
X0001832Y0040887D01*
X0001767Y0041940D01*
X0001728Y0042995D01*
X0001715Y0044050D01*
D11*
X0077215Y0054050D03*
X0077215Y0024050D03*
D12*
X0077215Y0034050D03*
X0077215Y0064050D03*
D13*
X0049715Y0044050D03*
X0039715Y0044050D03*
D14*
X0028365Y0035300D02*
X0023565Y0035300D01*
X0023565Y0052800D02*
X0028365Y0052800D01*
X0042315Y0060300D02*
X0047115Y0060300D01*
X0061065Y0052800D02*
X0065865Y0052800D01*
X0065865Y0035300D02*
X0061065Y0035300D01*
X0047115Y0027800D02*
X0042315Y0027800D01*
X0028365Y0015300D02*
X0023565Y0015300D01*
X0042315Y0007800D02*
X0047115Y0007800D01*
X0061065Y0015300D02*
X0065865Y0015300D01*
X0065865Y0072800D02*
X0061065Y0072800D01*
X0047115Y0080300D02*
X0042315Y0080300D01*
X0028365Y0072800D02*
X0023565Y0072800D01*
D15*
X0038612Y0044050D03*
X0050817Y0044050D03*
D16*
X0018465Y0045300D02*
X0018465Y0022800D01*
X0025965Y0015300D01*
X0025965Y0034050D02*
X0044715Y0015300D01*
X0044715Y0007800D01*
X0063465Y0015300D02*
X0050965Y0027800D01*
X0044715Y0027800D01*
X0049715Y0037800D02*
X0063465Y0024050D01*
X0077215Y0024050D01*
X0083465Y0032800D01*
X0083465Y0047800D01*
X0077215Y0054050D01*
X0070965Y0048425D02*
X0065965Y0044050D01*
X0070965Y0048425D02*
X0070965Y0066550D01*
X0064715Y0072800D01*
X0063465Y0072800D01*
X0063465Y0057800D02*
X0063465Y0052800D01*
X0063465Y0057800D02*
X0044715Y0076550D01*
X0044715Y0080300D01*
X0032215Y0072800D02*
X0044715Y0060300D01*
X0043465Y0050300D02*
X0039715Y0050300D01*
X0027215Y0062800D01*
X0010965Y0062800D01*
X0025965Y0052800D02*
X0018465Y0045300D01*
X0025965Y0035300D02*
X0025965Y0034050D01*
X0043465Y0050300D02*
X0049715Y0044050D01*
X0049715Y0037800D01*
X0032215Y0072800D02*
X0025965Y0072800D01*
D17*
X0010965Y0062800D03*
X0065965Y0044050D03*
M02*
