G75*
%MOIN*%
%OFA0B0*%
%FSLAX25Y25*%
%IPPOS*%
%LPD*%
%AMOC8*
5,1,8,0,0,1.08239X$1,22.5*
%
%ADD10C,0.00100*%
%ADD11C,0.00300*%
%ADD12C,0.00500*%
%ADD13C,0.00600*%
%ADD14R,0.07400X0.01700*%
%ADD15C,0.00800*%
D10*
X0001715Y0044050D02*
X0001728Y0045105D01*
X0001767Y0046160D01*
X0001832Y0047213D01*
X0001922Y0048265D01*
X0002038Y0049314D01*
X0002180Y0050359D01*
X0002348Y0051401D01*
X0002541Y0052439D01*
X0002760Y0053471D01*
X0003004Y0054498D01*
X0003273Y0055519D01*
X0003567Y0056532D01*
X0003885Y0057538D01*
X0004229Y0058536D01*
X0004596Y0059525D01*
X0004988Y0060505D01*
X0005404Y0061475D01*
X0005843Y0062435D01*
X0006306Y0063383D01*
X0006792Y0064320D01*
X0007301Y0065245D01*
X0007833Y0066156D01*
X0008386Y0067055D01*
X0008962Y0067940D01*
X0009559Y0068810D01*
X0010177Y0069665D01*
X0010816Y0070505D01*
X0011476Y0071329D01*
X0012155Y0072136D01*
X0012854Y0072927D01*
X0013572Y0073700D01*
X0014309Y0074456D01*
X0015065Y0075193D01*
X0015838Y0075911D01*
X0016629Y0076610D01*
X0017436Y0077289D01*
X0018260Y0077949D01*
X0019100Y0078588D01*
X0019955Y0079206D01*
X0020825Y0079803D01*
X0021710Y0080379D01*
X0022609Y0080932D01*
X0023520Y0081464D01*
X0024445Y0081973D01*
X0025382Y0082459D01*
X0026330Y0082922D01*
X0027290Y0083361D01*
X0028260Y0083777D01*
X0029240Y0084169D01*
X0030229Y0084536D01*
X0031227Y0084880D01*
X0032233Y0085198D01*
X0033246Y0085492D01*
X0034267Y0085761D01*
X0035294Y0086005D01*
X0036326Y0086224D01*
X0037364Y0086417D01*
X0038406Y0086585D01*
X0039451Y0086727D01*
X0040500Y0086843D01*
X0041552Y0086933D01*
X0042605Y0086998D01*
X0043660Y0087037D01*
X0044715Y0087050D01*
X0045770Y0087037D01*
X0046825Y0086998D01*
X0047878Y0086933D01*
X0048930Y0086843D01*
X0049979Y0086727D01*
X0051024Y0086585D01*
X0052066Y0086417D01*
X0053104Y0086224D01*
X0054136Y0086005D01*
X0055163Y0085761D01*
X0056184Y0085492D01*
X0057197Y0085198D01*
X0058203Y0084880D01*
X0059201Y0084536D01*
X0060190Y0084169D01*
X0061170Y0083777D01*
X0062140Y0083361D01*
X0063100Y0082922D01*
X0064048Y0082459D01*
X0064985Y0081973D01*
X0065910Y0081464D01*
X0066821Y0080932D01*
X0067720Y0080379D01*
X0068605Y0079803D01*
X0069475Y0079206D01*
X0070330Y0078588D01*
X0071170Y0077949D01*
X0071994Y0077289D01*
X0072801Y0076610D01*
X0073592Y0075911D01*
X0074365Y0075193D01*
X0075121Y0074456D01*
X0075858Y0073700D01*
X0076576Y0072927D01*
X0077275Y0072136D01*
X0077954Y0071329D01*
X0078614Y0070505D01*
X0079253Y0069665D01*
X0079871Y0068810D01*
X0080468Y0067940D01*
X0081044Y0067055D01*
X0081597Y0066156D01*
X0082129Y0065245D01*
X0082638Y0064320D01*
X0083124Y0063383D01*
X0083587Y0062435D01*
X0084026Y0061475D01*
X0084442Y0060505D01*
X0084834Y0059525D01*
X0085201Y0058536D01*
X0085545Y0057538D01*
X0085863Y0056532D01*
X0086157Y0055519D01*
X0086426Y0054498D01*
X0086670Y0053471D01*
X0086889Y0052439D01*
X0087082Y0051401D01*
X0087250Y0050359D01*
X0087392Y0049314D01*
X0087508Y0048265D01*
X0087598Y0047213D01*
X0087663Y0046160D01*
X0087702Y0045105D01*
X0087715Y0044050D01*
X0087702Y0042995D01*
X0087663Y0041940D01*
X0087598Y0040887D01*
X0087508Y0039835D01*
X0087392Y0038786D01*
X0087250Y0037741D01*
X0087082Y0036699D01*
X0086889Y0035661D01*
X0086670Y0034629D01*
X0086426Y0033602D01*
X0086157Y0032581D01*
X0085863Y0031568D01*
X0085545Y0030562D01*
X0085201Y0029564D01*
X0084834Y0028575D01*
X0084442Y0027595D01*
X0084026Y0026625D01*
X0083587Y0025665D01*
X0083124Y0024717D01*
X0082638Y0023780D01*
X0082129Y0022855D01*
X0081597Y0021944D01*
X0081044Y0021045D01*
X0080468Y0020160D01*
X0079871Y0019290D01*
X0079253Y0018435D01*
X0078614Y0017595D01*
X0077954Y0016771D01*
X0077275Y0015964D01*
X0076576Y0015173D01*
X0075858Y0014400D01*
X0075121Y0013644D01*
X0074365Y0012907D01*
X0073592Y0012189D01*
X0072801Y0011490D01*
X0071994Y0010811D01*
X0071170Y0010151D01*
X0070330Y0009512D01*
X0069475Y0008894D01*
X0068605Y0008297D01*
X0067720Y0007721D01*
X0066821Y0007168D01*
X0065910Y0006636D01*
X0064985Y0006127D01*
X0064048Y0005641D01*
X0063100Y0005178D01*
X0062140Y0004739D01*
X0061170Y0004323D01*
X0060190Y0003931D01*
X0059201Y0003564D01*
X0058203Y0003220D01*
X0057197Y0002902D01*
X0056184Y0002608D01*
X0055163Y0002339D01*
X0054136Y0002095D01*
X0053104Y0001876D01*
X0052066Y0001683D01*
X0051024Y0001515D01*
X0049979Y0001373D01*
X0048930Y0001257D01*
X0047878Y0001167D01*
X0046825Y0001102D01*
X0045770Y0001063D01*
X0044715Y0001050D01*
X0043660Y0001063D01*
X0042605Y0001102D01*
X0041552Y0001167D01*
X0040500Y0001257D01*
X0039451Y0001373D01*
X0038406Y0001515D01*
X0037364Y0001683D01*
X0036326Y0001876D01*
X0035294Y0002095D01*
X0034267Y0002339D01*
X0033246Y0002608D01*
X0032233Y0002902D01*
X0031227Y0003220D01*
X0030229Y0003564D01*
X0029240Y0003931D01*
X0028260Y0004323D01*
X0027290Y0004739D01*
X0026330Y0005178D01*
X0025382Y0005641D01*
X0024445Y0006127D01*
X0023520Y0006636D01*
X0022609Y0007168D01*
X0021710Y0007721D01*
X0020825Y0008297D01*
X0019955Y0008894D01*
X0019100Y0009512D01*
X0018260Y0010151D01*
X0017436Y0010811D01*
X0016629Y0011490D01*
X0015838Y0012189D01*
X0015065Y0012907D01*
X0014309Y0013644D01*
X0013572Y0014400D01*
X0012854Y0015173D01*
X0012155Y0015964D01*
X0011476Y0016771D01*
X0010816Y0017595D01*
X0010177Y0018435D01*
X0009559Y0019290D01*
X0008962Y0020160D01*
X0008386Y0021045D01*
X0007833Y0021944D01*
X0007301Y0022855D01*
X0006792Y0023780D01*
X0006306Y0024717D01*
X0005843Y0025665D01*
X0005404Y0026625D01*
X0004988Y0027595D01*
X0004596Y0028575D01*
X0004229Y0029564D01*
X0003885Y0030562D01*
X0003567Y0031568D01*
X0003273Y0032581D01*
X0003004Y0033602D01*
X0002760Y0034629D01*
X0002541Y0035661D01*
X0002348Y0036699D01*
X0002180Y0037741D01*
X0002038Y0038786D01*
X0001922Y0039835D01*
X0001832Y0040887D01*
X0001767Y0041940D01*
X0001728Y0042995D01*
X0001715Y0044050D01*
D11*
X0005576Y0033902D02*
X0005576Y0031000D01*
X0005576Y0032451D02*
X0007511Y0032451D01*
X0008523Y0032935D02*
X0008523Y0031000D01*
X0009974Y0031000D01*
X0010458Y0031484D01*
X0010458Y0032935D01*
X0011469Y0033419D02*
X0011469Y0033902D01*
X0013404Y0033902D01*
X0015889Y0032451D02*
X0017824Y0032451D01*
X0016373Y0033902D01*
X0016373Y0031000D01*
X0014877Y0031000D02*
X0014394Y0031000D01*
X0014394Y0031484D01*
X0014877Y0031484D01*
X0014877Y0031000D01*
X0013404Y0031000D02*
X0013404Y0031484D01*
X0011469Y0033419D01*
X0007511Y0033902D02*
X0007511Y0031000D01*
X0031665Y0048574D02*
X0034567Y0048574D01*
X0033600Y0049542D01*
X0034567Y0050509D01*
X0031665Y0050509D01*
X0032148Y0051521D02*
X0031665Y0052005D01*
X0031665Y0052972D01*
X0032148Y0053456D01*
X0031665Y0054467D02*
X0034567Y0054467D01*
X0034567Y0055919D01*
X0034083Y0056402D01*
X0033116Y0056402D01*
X0032632Y0055919D01*
X0032632Y0054467D01*
X0034083Y0053456D02*
X0034567Y0052972D01*
X0034567Y0052005D01*
X0034083Y0051521D01*
X0032148Y0051521D01*
X0031665Y0057414D02*
X0031665Y0059349D01*
X0031665Y0058381D02*
X0034567Y0058381D01*
X0033600Y0057414D01*
X0033116Y0060360D02*
X0032148Y0060360D01*
X0031665Y0060844D01*
X0031665Y0061812D01*
X0032148Y0062295D01*
X0032632Y0062295D01*
X0033116Y0061812D01*
X0033116Y0060360D01*
X0034083Y0061328D01*
X0034567Y0062295D01*
X0033116Y0063307D02*
X0033116Y0065242D01*
X0032148Y0066253D02*
X0034083Y0066253D01*
X0034567Y0066737D01*
X0034567Y0067705D01*
X0034083Y0068188D01*
X0032148Y0066253D01*
X0031665Y0066737D01*
X0031665Y0067705D01*
X0032148Y0068188D01*
X0034083Y0068188D01*
X0034567Y0064758D02*
X0031665Y0064758D01*
X0033116Y0063307D02*
X0034567Y0064758D01*
X0039326Y0057027D02*
X0041261Y0057027D01*
X0041261Y0054125D01*
X0042273Y0054125D02*
X0042273Y0056060D01*
X0041261Y0055576D02*
X0040294Y0055576D01*
X0042273Y0054125D02*
X0043724Y0054125D01*
X0044208Y0054609D01*
X0044208Y0056060D01*
X0045219Y0056544D02*
X0047154Y0054609D01*
X0046670Y0054125D01*
X0045703Y0054125D01*
X0045219Y0054609D01*
X0045219Y0056544D01*
X0045703Y0057027D01*
X0046670Y0057027D01*
X0047154Y0056544D01*
X0047154Y0054609D01*
X0048166Y0054125D02*
X0050101Y0054125D01*
X0049133Y0054125D02*
X0049133Y0057027D01*
X0050101Y0056060D01*
X0051598Y0059200D02*
X0051115Y0059684D01*
X0051115Y0060651D01*
X0051598Y0061135D01*
X0053533Y0061135D01*
X0054017Y0060651D01*
X0054017Y0059684D01*
X0053533Y0059200D01*
X0053050Y0059200D01*
X0052566Y0059684D01*
X0052566Y0061135D01*
X0051598Y0062147D02*
X0051115Y0062147D01*
X0051598Y0062147D02*
X0053533Y0064081D01*
X0054017Y0064081D01*
X0054017Y0062147D01*
X0052566Y0065093D02*
X0051598Y0065093D01*
X0051115Y0065577D01*
X0051115Y0066544D01*
X0051598Y0067028D01*
X0052082Y0067028D01*
X0052566Y0066544D01*
X0052566Y0065093D01*
X0053533Y0066061D01*
X0054017Y0067028D01*
X0054017Y0068040D02*
X0051115Y0068040D01*
X0052082Y0068040D02*
X0054017Y0069975D01*
X0052566Y0068523D02*
X0051115Y0069975D01*
X0051598Y0074200D02*
X0051115Y0074684D01*
X0051115Y0075651D01*
X0051598Y0076135D01*
X0052566Y0076135D01*
X0053050Y0075651D01*
X0053050Y0075167D01*
X0052566Y0074200D01*
X0054017Y0074200D01*
X0054017Y0076135D01*
X0052566Y0077147D02*
X0052566Y0078598D01*
X0052082Y0079081D01*
X0051598Y0079081D01*
X0051115Y0078598D01*
X0051115Y0077630D01*
X0051598Y0077147D01*
X0052566Y0077147D01*
X0053533Y0078114D01*
X0054017Y0079081D01*
X0053533Y0080093D02*
X0054017Y0080577D01*
X0054017Y0081544D01*
X0053533Y0082028D01*
X0053050Y0082028D01*
X0051115Y0080093D01*
X0051115Y0082028D01*
X0051115Y0083040D02*
X0054017Y0083040D01*
X0052566Y0083523D02*
X0051115Y0084975D01*
X0052082Y0083040D02*
X0054017Y0084975D01*
X0053761Y0048902D02*
X0052794Y0047935D01*
X0051826Y0048902D01*
X0051826Y0046000D01*
X0053761Y0046000D02*
X0053761Y0048902D01*
X0055740Y0048902D02*
X0055740Y0046000D01*
X0054773Y0046000D02*
X0056708Y0046000D01*
X0056708Y0047935D02*
X0055740Y0048902D01*
D12*
X0062858Y0051804D02*
X0065861Y0051804D01*
X0064359Y0051804D02*
X0064359Y0047300D01*
X0068963Y0047300D02*
X0068963Y0051804D01*
X0067462Y0051804D02*
X0070465Y0051804D01*
X0070465Y0021804D02*
X0067462Y0021804D01*
X0068963Y0021804D02*
X0068963Y0017300D01*
X0064359Y0017300D02*
X0064359Y0021804D01*
X0062858Y0021804D02*
X0065861Y0021804D01*
X0020639Y0058863D02*
X0020641Y0058902D01*
X0020647Y0058941D01*
X0020657Y0058979D01*
X0020670Y0059016D01*
X0020687Y0059051D01*
X0020707Y0059085D01*
X0020731Y0059116D01*
X0020758Y0059145D01*
X0020787Y0059171D01*
X0020819Y0059194D01*
X0020853Y0059214D01*
X0020889Y0059230D01*
X0020926Y0059242D01*
X0020965Y0059251D01*
X0021004Y0059256D01*
X0021043Y0059257D01*
X0021082Y0059254D01*
X0021121Y0059247D01*
X0021158Y0059236D01*
X0021195Y0059222D01*
X0021230Y0059204D01*
X0021263Y0059183D01*
X0021294Y0059158D01*
X0021322Y0059131D01*
X0021347Y0059101D01*
X0021369Y0059068D01*
X0021388Y0059034D01*
X0021403Y0058998D01*
X0021415Y0058960D01*
X0021423Y0058922D01*
X0021427Y0058883D01*
X0021427Y0058843D01*
X0021423Y0058804D01*
X0021415Y0058766D01*
X0021403Y0058728D01*
X0021388Y0058692D01*
X0021369Y0058658D01*
X0021347Y0058625D01*
X0021322Y0058595D01*
X0021294Y0058568D01*
X0021263Y0058543D01*
X0021230Y0058522D01*
X0021195Y0058504D01*
X0021158Y0058490D01*
X0021121Y0058479D01*
X0021082Y0058472D01*
X0021043Y0058469D01*
X0021004Y0058470D01*
X0020965Y0058475D01*
X0020926Y0058484D01*
X0020889Y0058496D01*
X0020853Y0058512D01*
X0020819Y0058532D01*
X0020787Y0058555D01*
X0020758Y0058581D01*
X0020731Y0058610D01*
X0020707Y0058641D01*
X0020687Y0058675D01*
X0020670Y0058710D01*
X0020657Y0058747D01*
X0020647Y0058785D01*
X0020641Y0058824D01*
X0020639Y0058863D01*
X0001250Y0044050D02*
X0001253Y0044258D01*
X0001260Y0044465D01*
X0001273Y0044673D01*
X0001291Y0044880D01*
X0001314Y0045086D01*
X0001342Y0045292D01*
X0001375Y0045497D01*
X0001413Y0045701D01*
X0001456Y0045905D01*
X0001504Y0046107D01*
X0001557Y0046308D01*
X0001615Y0046507D01*
X0001677Y0046705D01*
X0001745Y0046902D01*
X0001817Y0047097D01*
X0001894Y0047289D01*
X0001976Y0047480D01*
X0002063Y0047669D01*
X0002154Y0047856D01*
X0002250Y0048040D01*
X0002350Y0048222D01*
X0002454Y0048402D01*
X0002563Y0048579D01*
X0002677Y0048753D01*
X0002794Y0048924D01*
X0002916Y0049093D01*
X0003042Y0049258D01*
X0003171Y0049420D01*
X0003305Y0049579D01*
X0003443Y0049735D01*
X0003584Y0049887D01*
X0003729Y0050036D01*
X0003878Y0050181D01*
X0004030Y0050322D01*
X0004186Y0050460D01*
X0004345Y0050594D01*
X0004507Y0050723D01*
X0004672Y0050849D01*
X0004841Y0050971D01*
X0005012Y0051088D01*
X0005186Y0051202D01*
X0005363Y0051311D01*
X0005543Y0051415D01*
X0005725Y0051515D01*
X0005909Y0051611D01*
X0006096Y0051702D01*
X0006285Y0051789D01*
X0006476Y0051871D01*
X0006668Y0051948D01*
X0006863Y0052020D01*
X0007060Y0052088D01*
X0007258Y0052150D01*
X0007457Y0052208D01*
X0007658Y0052261D01*
X0007860Y0052309D01*
X0008064Y0052352D01*
X0008268Y0052390D01*
X0008473Y0052423D01*
X0008679Y0052451D01*
X0008885Y0052474D01*
X0009092Y0052492D01*
X0009300Y0052505D01*
X0009507Y0052512D01*
X0009715Y0052515D01*
X0009923Y0052512D01*
X0010130Y0052505D01*
X0010338Y0052492D01*
X0010545Y0052474D01*
X0010751Y0052451D01*
X0010957Y0052423D01*
X0011162Y0052390D01*
X0011366Y0052352D01*
X0011570Y0052309D01*
X0011772Y0052261D01*
X0011973Y0052208D01*
X0012172Y0052150D01*
X0012370Y0052088D01*
X0012567Y0052020D01*
X0012762Y0051948D01*
X0012954Y0051871D01*
X0013145Y0051789D01*
X0013334Y0051702D01*
X0013521Y0051611D01*
X0013705Y0051515D01*
X0013887Y0051415D01*
X0014067Y0051311D01*
X0014244Y0051202D01*
X0014418Y0051088D01*
X0014589Y0050971D01*
X0014758Y0050849D01*
X0014923Y0050723D01*
X0015085Y0050594D01*
X0015244Y0050460D01*
X0015400Y0050322D01*
X0015552Y0050181D01*
X0015701Y0050036D01*
X0015846Y0049887D01*
X0015987Y0049735D01*
X0016125Y0049579D01*
X0016259Y0049420D01*
X0016388Y0049258D01*
X0016514Y0049093D01*
X0016636Y0048924D01*
X0016753Y0048753D01*
X0016867Y0048579D01*
X0016976Y0048402D01*
X0017080Y0048222D01*
X0017180Y0048040D01*
X0017276Y0047856D01*
X0017367Y0047669D01*
X0017454Y0047480D01*
X0017536Y0047289D01*
X0017613Y0047097D01*
X0017685Y0046902D01*
X0017753Y0046705D01*
X0017815Y0046507D01*
X0017873Y0046308D01*
X0017926Y0046107D01*
X0017974Y0045905D01*
X0018017Y0045701D01*
X0018055Y0045497D01*
X0018088Y0045292D01*
X0018116Y0045086D01*
X0018139Y0044880D01*
X0018157Y0044673D01*
X0018170Y0044465D01*
X0018177Y0044258D01*
X0018180Y0044050D01*
X0018177Y0043842D01*
X0018170Y0043635D01*
X0018157Y0043427D01*
X0018139Y0043220D01*
X0018116Y0043014D01*
X0018088Y0042808D01*
X0018055Y0042603D01*
X0018017Y0042399D01*
X0017974Y0042195D01*
X0017926Y0041993D01*
X0017873Y0041792D01*
X0017815Y0041593D01*
X0017753Y0041395D01*
X0017685Y0041198D01*
X0017613Y0041003D01*
X0017536Y0040811D01*
X0017454Y0040620D01*
X0017367Y0040431D01*
X0017276Y0040244D01*
X0017180Y0040060D01*
X0017080Y0039878D01*
X0016976Y0039698D01*
X0016867Y0039521D01*
X0016753Y0039347D01*
X0016636Y0039176D01*
X0016514Y0039007D01*
X0016388Y0038842D01*
X0016259Y0038680D01*
X0016125Y0038521D01*
X0015987Y0038365D01*
X0015846Y0038213D01*
X0015701Y0038064D01*
X0015552Y0037919D01*
X0015400Y0037778D01*
X0015244Y0037640D01*
X0015085Y0037506D01*
X0014923Y0037377D01*
X0014758Y0037251D01*
X0014589Y0037129D01*
X0014418Y0037012D01*
X0014244Y0036898D01*
X0014067Y0036789D01*
X0013887Y0036685D01*
X0013705Y0036585D01*
X0013521Y0036489D01*
X0013334Y0036398D01*
X0013145Y0036311D01*
X0012954Y0036229D01*
X0012762Y0036152D01*
X0012567Y0036080D01*
X0012370Y0036012D01*
X0012172Y0035950D01*
X0011973Y0035892D01*
X0011772Y0035839D01*
X0011570Y0035791D01*
X0011366Y0035748D01*
X0011162Y0035710D01*
X0010957Y0035677D01*
X0010751Y0035649D01*
X0010545Y0035626D01*
X0010338Y0035608D01*
X0010130Y0035595D01*
X0009923Y0035588D01*
X0009715Y0035585D01*
X0009507Y0035588D01*
X0009300Y0035595D01*
X0009092Y0035608D01*
X0008885Y0035626D01*
X0008679Y0035649D01*
X0008473Y0035677D01*
X0008268Y0035710D01*
X0008064Y0035748D01*
X0007860Y0035791D01*
X0007658Y0035839D01*
X0007457Y0035892D01*
X0007258Y0035950D01*
X0007060Y0036012D01*
X0006863Y0036080D01*
X0006668Y0036152D01*
X0006476Y0036229D01*
X0006285Y0036311D01*
X0006096Y0036398D01*
X0005909Y0036489D01*
X0005725Y0036585D01*
X0005543Y0036685D01*
X0005363Y0036789D01*
X0005186Y0036898D01*
X0005012Y0037012D01*
X0004841Y0037129D01*
X0004672Y0037251D01*
X0004507Y0037377D01*
X0004345Y0037506D01*
X0004186Y0037640D01*
X0004030Y0037778D01*
X0003878Y0037919D01*
X0003729Y0038064D01*
X0003584Y0038213D01*
X0003443Y0038365D01*
X0003305Y0038521D01*
X0003171Y0038680D01*
X0003042Y0038842D01*
X0002916Y0039007D01*
X0002794Y0039176D01*
X0002677Y0039347D01*
X0002563Y0039521D01*
X0002454Y0039698D01*
X0002350Y0039878D01*
X0002250Y0040060D01*
X0002154Y0040244D01*
X0002063Y0040431D01*
X0001976Y0040620D01*
X0001894Y0040811D01*
X0001817Y0041003D01*
X0001745Y0041198D01*
X0001677Y0041395D01*
X0001615Y0041593D01*
X0001557Y0041792D01*
X0001504Y0041993D01*
X0001456Y0042195D01*
X0001413Y0042399D01*
X0001375Y0042603D01*
X0001342Y0042808D01*
X0001314Y0043014D01*
X0001291Y0043220D01*
X0001273Y0043427D01*
X0001260Y0043635D01*
X0001253Y0043842D01*
X0001250Y0044050D01*
D13*
X0019026Y0057202D02*
X0019026Y0057572D01*
X0019026Y0057202D02*
X0025404Y0057202D01*
X0025404Y0057572D01*
X0025404Y0060745D02*
X0025404Y0064855D01*
X0025404Y0068028D02*
X0025404Y0068398D01*
X0019026Y0068398D01*
X0019026Y0068028D01*
X0019026Y0064855D02*
X0019026Y0064485D01*
X0019026Y0061115D02*
X0019026Y0060745D01*
X0037215Y0073050D02*
X0036874Y0073046D01*
X0036533Y0073033D01*
X0036193Y0073013D01*
X0035853Y0072984D01*
X0035514Y0072946D01*
X0035177Y0072901D01*
X0034840Y0072847D01*
X0034505Y0072785D01*
X0034171Y0072715D01*
X0033839Y0072637D01*
X0033509Y0072551D01*
X0033182Y0072456D01*
X0032856Y0072354D01*
X0032534Y0072244D01*
X0032214Y0072126D01*
X0031897Y0072001D01*
X0031583Y0071867D01*
X0031273Y0071726D01*
X0030966Y0071578D01*
X0030662Y0071422D01*
X0030363Y0071259D01*
X0030068Y0071088D01*
X0029777Y0070911D01*
X0029490Y0070726D01*
X0029208Y0070534D01*
X0028931Y0070336D01*
X0028659Y0070131D01*
X0028391Y0069919D01*
X0028129Y0069701D01*
X0027873Y0069477D01*
X0027621Y0069246D01*
X0027376Y0069010D01*
X0027136Y0068767D01*
X0026903Y0068519D01*
X0026675Y0068265D01*
X0026454Y0068005D01*
X0026239Y0067741D01*
X0026031Y0067471D01*
X0025829Y0067196D01*
X0025634Y0066916D01*
X0025446Y0066632D01*
X0025265Y0066343D01*
X0025091Y0066050D01*
X0024924Y0065753D01*
X0024764Y0065451D01*
X0024612Y0065146D01*
X0024467Y0064838D01*
X0024330Y0064525D01*
X0024201Y0064210D01*
X0024079Y0063892D01*
X0023965Y0063570D01*
X0023859Y0063246D01*
X0023760Y0062920D01*
X0023670Y0062591D01*
X0023588Y0062260D01*
X0023514Y0061927D01*
X0023448Y0061593D01*
X0023390Y0061257D01*
X0023340Y0060920D01*
X0023299Y0060581D01*
X0023266Y0060242D01*
X0023241Y0059902D01*
X0023224Y0059561D01*
X0023216Y0059220D01*
X0023216Y0058880D01*
X0023224Y0058539D01*
X0023241Y0058198D01*
X0023266Y0057858D01*
X0023299Y0057519D01*
X0023340Y0057180D01*
X0023390Y0056843D01*
X0023448Y0056507D01*
X0023514Y0056173D01*
X0023588Y0055840D01*
X0023670Y0055509D01*
X0023760Y0055180D01*
X0023859Y0054854D01*
X0023965Y0054530D01*
X0024079Y0054208D01*
X0024201Y0053890D01*
X0024330Y0053575D01*
X0024467Y0053262D01*
X0024612Y0052954D01*
X0024764Y0052649D01*
X0024924Y0052347D01*
X0025091Y0052050D01*
X0025265Y0051757D01*
X0025446Y0051468D01*
X0025634Y0051184D01*
X0025829Y0050904D01*
X0026031Y0050629D01*
X0026239Y0050359D01*
X0026454Y0050095D01*
X0026675Y0049835D01*
X0026903Y0049581D01*
X0027136Y0049333D01*
X0027376Y0049090D01*
X0027621Y0048854D01*
X0027873Y0048623D01*
X0028129Y0048399D01*
X0028391Y0048181D01*
X0028659Y0047969D01*
X0028931Y0047764D01*
X0029208Y0047566D01*
X0029490Y0047374D01*
X0029777Y0047189D01*
X0030068Y0047012D01*
X0030363Y0046841D01*
X0030662Y0046678D01*
X0030966Y0046522D01*
X0031273Y0046374D01*
X0031583Y0046233D01*
X0031897Y0046099D01*
X0032214Y0045974D01*
X0032534Y0045856D01*
X0032856Y0045746D01*
X0033182Y0045644D01*
X0033509Y0045549D01*
X0033839Y0045463D01*
X0034171Y0045385D01*
X0034505Y0045315D01*
X0034840Y0045253D01*
X0035177Y0045199D01*
X0035514Y0045154D01*
X0035853Y0045116D01*
X0036193Y0045087D01*
X0036533Y0045067D01*
X0036874Y0045054D01*
X0037215Y0045050D01*
X0070715Y0045050D01*
X0070813Y0045052D01*
X0070911Y0045058D01*
X0071009Y0045067D01*
X0071106Y0045081D01*
X0071203Y0045098D01*
X0071299Y0045119D01*
X0071394Y0045144D01*
X0071488Y0045172D01*
X0071580Y0045205D01*
X0071672Y0045240D01*
X0071762Y0045280D01*
X0071850Y0045322D01*
X0071937Y0045369D01*
X0072021Y0045418D01*
X0072104Y0045471D01*
X0072184Y0045527D01*
X0072263Y0045587D01*
X0072339Y0045649D01*
X0072412Y0045714D01*
X0072483Y0045782D01*
X0072551Y0045853D01*
X0072616Y0045926D01*
X0072678Y0046002D01*
X0072738Y0046081D01*
X0072794Y0046161D01*
X0072847Y0046244D01*
X0072896Y0046328D01*
X0072943Y0046415D01*
X0072985Y0046503D01*
X0073025Y0046593D01*
X0073060Y0046685D01*
X0073093Y0046777D01*
X0073121Y0046871D01*
X0073146Y0046966D01*
X0073167Y0047062D01*
X0073184Y0047159D01*
X0073198Y0047256D01*
X0073207Y0047354D01*
X0073213Y0047452D01*
X0073215Y0047550D01*
X0073215Y0070550D01*
X0073213Y0070648D01*
X0073207Y0070746D01*
X0073198Y0070844D01*
X0073184Y0070941D01*
X0073167Y0071038D01*
X0073146Y0071134D01*
X0073121Y0071229D01*
X0073093Y0071323D01*
X0073060Y0071415D01*
X0073025Y0071507D01*
X0072985Y0071597D01*
X0072943Y0071685D01*
X0072896Y0071772D01*
X0072847Y0071856D01*
X0072794Y0071939D01*
X0072738Y0072019D01*
X0072678Y0072098D01*
X0072616Y0072174D01*
X0072551Y0072247D01*
X0072483Y0072318D01*
X0072412Y0072386D01*
X0072339Y0072451D01*
X0072263Y0072513D01*
X0072184Y0072573D01*
X0072104Y0072629D01*
X0072021Y0072682D01*
X0071937Y0072731D01*
X0071850Y0072778D01*
X0071762Y0072820D01*
X0071672Y0072860D01*
X0071580Y0072895D01*
X0071488Y0072928D01*
X0071394Y0072956D01*
X0071299Y0072981D01*
X0071203Y0073002D01*
X0071106Y0073019D01*
X0071009Y0073033D01*
X0070911Y0073042D01*
X0070813Y0073048D01*
X0070715Y0073050D01*
X0037215Y0073050D01*
X0043533Y0071688D02*
X0045896Y0071688D01*
X0045896Y0068912D02*
X0043533Y0068912D01*
X0043533Y0064188D02*
X0045896Y0064188D01*
X0045896Y0052662D02*
X0043533Y0052662D01*
X0043533Y0047938D02*
X0045896Y0047938D01*
X0037215Y0043050D02*
X0070715Y0043050D01*
X0070813Y0043048D01*
X0070911Y0043042D01*
X0071009Y0043033D01*
X0071106Y0043019D01*
X0071203Y0043002D01*
X0071299Y0042981D01*
X0071394Y0042956D01*
X0071488Y0042928D01*
X0071580Y0042895D01*
X0071672Y0042860D01*
X0071762Y0042820D01*
X0071850Y0042778D01*
X0071937Y0042731D01*
X0072021Y0042682D01*
X0072104Y0042629D01*
X0072184Y0042573D01*
X0072263Y0042513D01*
X0072339Y0042451D01*
X0072412Y0042386D01*
X0072483Y0042318D01*
X0072551Y0042247D01*
X0072616Y0042174D01*
X0072678Y0042098D01*
X0072738Y0042019D01*
X0072794Y0041939D01*
X0072847Y0041856D01*
X0072896Y0041772D01*
X0072943Y0041685D01*
X0072985Y0041597D01*
X0073025Y0041507D01*
X0073060Y0041415D01*
X0073093Y0041323D01*
X0073121Y0041229D01*
X0073146Y0041134D01*
X0073167Y0041038D01*
X0073184Y0040941D01*
X0073198Y0040844D01*
X0073207Y0040746D01*
X0073213Y0040648D01*
X0073215Y0040550D01*
X0073215Y0017550D01*
X0073213Y0017452D01*
X0073207Y0017354D01*
X0073198Y0017256D01*
X0073184Y0017159D01*
X0073167Y0017062D01*
X0073146Y0016966D01*
X0073121Y0016871D01*
X0073093Y0016777D01*
X0073060Y0016685D01*
X0073025Y0016593D01*
X0072985Y0016503D01*
X0072943Y0016415D01*
X0072896Y0016328D01*
X0072847Y0016244D01*
X0072794Y0016161D01*
X0072738Y0016081D01*
X0072678Y0016002D01*
X0072616Y0015926D01*
X0072551Y0015853D01*
X0072483Y0015782D01*
X0072412Y0015714D01*
X0072339Y0015649D01*
X0072263Y0015587D01*
X0072184Y0015527D01*
X0072104Y0015471D01*
X0072021Y0015418D01*
X0071937Y0015369D01*
X0071850Y0015322D01*
X0071762Y0015280D01*
X0071672Y0015240D01*
X0071580Y0015205D01*
X0071488Y0015172D01*
X0071394Y0015144D01*
X0071299Y0015119D01*
X0071203Y0015098D01*
X0071106Y0015081D01*
X0071009Y0015067D01*
X0070911Y0015058D01*
X0070813Y0015052D01*
X0070715Y0015050D01*
X0037215Y0015050D01*
X0036874Y0015054D01*
X0036533Y0015067D01*
X0036193Y0015087D01*
X0035853Y0015116D01*
X0035514Y0015154D01*
X0035177Y0015199D01*
X0034840Y0015253D01*
X0034505Y0015315D01*
X0034171Y0015385D01*
X0033839Y0015463D01*
X0033509Y0015549D01*
X0033182Y0015644D01*
X0032856Y0015746D01*
X0032534Y0015856D01*
X0032214Y0015974D01*
X0031897Y0016099D01*
X0031583Y0016233D01*
X0031273Y0016374D01*
X0030966Y0016522D01*
X0030662Y0016678D01*
X0030363Y0016841D01*
X0030068Y0017012D01*
X0029777Y0017189D01*
X0029490Y0017374D01*
X0029208Y0017566D01*
X0028931Y0017764D01*
X0028659Y0017969D01*
X0028391Y0018181D01*
X0028129Y0018399D01*
X0027873Y0018623D01*
X0027621Y0018854D01*
X0027376Y0019090D01*
X0027136Y0019333D01*
X0026903Y0019581D01*
X0026675Y0019835D01*
X0026454Y0020095D01*
X0026239Y0020359D01*
X0026031Y0020629D01*
X0025829Y0020904D01*
X0025634Y0021184D01*
X0025446Y0021468D01*
X0025265Y0021757D01*
X0025091Y0022050D01*
X0024924Y0022347D01*
X0024764Y0022649D01*
X0024612Y0022954D01*
X0024467Y0023262D01*
X0024330Y0023575D01*
X0024201Y0023890D01*
X0024079Y0024208D01*
X0023965Y0024530D01*
X0023859Y0024854D01*
X0023760Y0025180D01*
X0023670Y0025509D01*
X0023588Y0025840D01*
X0023514Y0026173D01*
X0023448Y0026507D01*
X0023390Y0026843D01*
X0023340Y0027180D01*
X0023299Y0027519D01*
X0023266Y0027858D01*
X0023241Y0028198D01*
X0023224Y0028539D01*
X0023216Y0028880D01*
X0023216Y0029220D01*
X0023224Y0029561D01*
X0023241Y0029902D01*
X0023266Y0030242D01*
X0023299Y0030581D01*
X0023340Y0030920D01*
X0023390Y0031257D01*
X0023448Y0031593D01*
X0023514Y0031927D01*
X0023588Y0032260D01*
X0023670Y0032591D01*
X0023760Y0032920D01*
X0023859Y0033246D01*
X0023965Y0033570D01*
X0024079Y0033892D01*
X0024201Y0034210D01*
X0024330Y0034525D01*
X0024467Y0034838D01*
X0024612Y0035146D01*
X0024764Y0035451D01*
X0024924Y0035753D01*
X0025091Y0036050D01*
X0025265Y0036343D01*
X0025446Y0036632D01*
X0025634Y0036916D01*
X0025829Y0037196D01*
X0026031Y0037471D01*
X0026239Y0037741D01*
X0026454Y0038005D01*
X0026675Y0038265D01*
X0026903Y0038519D01*
X0027136Y0038767D01*
X0027376Y0039010D01*
X0027621Y0039246D01*
X0027873Y0039477D01*
X0028129Y0039701D01*
X0028391Y0039919D01*
X0028659Y0040131D01*
X0028931Y0040336D01*
X0029208Y0040534D01*
X0029490Y0040726D01*
X0029777Y0040911D01*
X0030068Y0041088D01*
X0030363Y0041259D01*
X0030662Y0041422D01*
X0030966Y0041578D01*
X0031273Y0041726D01*
X0031583Y0041867D01*
X0031897Y0042001D01*
X0032214Y0042126D01*
X0032534Y0042244D01*
X0032856Y0042354D01*
X0033182Y0042456D01*
X0033509Y0042551D01*
X0033839Y0042637D01*
X0034171Y0042715D01*
X0034505Y0042785D01*
X0034840Y0042847D01*
X0035177Y0042901D01*
X0035514Y0042946D01*
X0035853Y0042984D01*
X0036193Y0043013D01*
X0036533Y0043033D01*
X0036874Y0043046D01*
X0037215Y0043050D01*
X0063215Y0037050D02*
X0066215Y0037050D01*
X0064715Y0038550D02*
X0064715Y0035550D01*
X0067715Y0033550D02*
X0067715Y0031050D01*
X0064215Y0031050D01*
X0064215Y0029750D01*
X0071215Y0029750D01*
X0071215Y0031050D01*
X0067715Y0031050D01*
X0067715Y0027050D02*
X0067715Y0025050D01*
X0067715Y0055050D02*
X0067715Y0057050D01*
X0071215Y0059750D02*
X0064215Y0059750D01*
X0064215Y0061050D01*
X0067715Y0061050D01*
X0071215Y0061050D01*
X0071215Y0059750D01*
X0067715Y0061050D02*
X0067715Y0063550D01*
X0064715Y0065550D02*
X0064715Y0068550D01*
X0066215Y0067050D02*
X0063215Y0067050D01*
X0045896Y0076412D02*
X0043533Y0076412D01*
D14*
X0067715Y0057700D03*
X0067715Y0027700D03*
D15*
X0068258Y0060241D02*
X0062746Y0060241D01*
X0062746Y0065359D01*
X0068258Y0065359D01*
X0062746Y0065359D02*
X0061171Y0065359D01*
X0061171Y0060241D02*
X0062746Y0060241D01*
M02*
